<svg width="51" height="70" viewBox="0 0 51 70" fill="none" xmlns="http://www.w3.org/2000/svg">
<path d="M26.0643 37.8972C26.0643 37.8972 16.1064 38.772 12.9202 37.5027C9.73403 36.2334 1.49585 27.7949 1.49585 27.7949C-0.0124387 26.8345 -0.341235 25.0046 0.334624 24.026C1.06789 22.9644 3.15549 22.6555 4.58027 24.026C9.70794 28.3997 12.5262 30.3464 13.0298 29.8714C13.7057 29.2329 10.2142 24.2233 2.55009 14.8425C1.42278 13.4902 1.82726 11.559 3.0198 10.84C4.20973 10.121 6.11727 10.6557 6.80357 12.2728C12.7898 19.8833 16.1142 23.4731 16.7745 23.0396C17.4712 22.5828 15.1983 17.6355 9.95062 8.2002C8.44233 6.03282 8.93031 3.65259 9.97149 3.05559C10.9762 2.47935 13.1551 3.18796 14.3581 5.35275C19.3318 14.4532 22.2674 18.8139 23.1651 18.4323C24.0236 18.0663 23.0164 13.363 20.1433 4.31968C19.3161 2.34437 20.4251 0.382046 21.7455 0.054992C23.019 -0.26168 24.8508 0.859649 25.1614 2.88427L33.0264 23.3978L35.8003 13.812C35.8734 11.4993 37.687 10.0795 38.9186 10.2664C40.1268 10.448 41.4055 12.2676 40.881 14.4506C40.881 14.4506 41.4264 30.7436 39.8241 31.5482C38.2219 32.3529 23.5957 26.048 23.5957 26.048C21.4063 25.4251 19.2195 26.4685 18.5072 28.218C17.9905 29.4899 18.301 31.0187 19.2535 32.1816L26.059 37.8972H26.0643Z" fill="#221D20"/>
<path d="M50.9926 48.8346C51.2196 42.1403 45.9562 38.3169 45.5622 38.0418L24.7254 28.0095C22.8883 26.8622 20.6911 27.467 19.9578 28.7337C19.1645 30.1042 19.9187 32.5338 22.1576 33.3618C26.9121 35.4124 29.185 36.9724 28.971 38.0444C28.6396 39.7082 22.3012 40.1884 9.95823 39.485C6.90773 39.3578 4.81231 40.6582 4.76012 41.7069C4.70793 42.714 6.49804 44.0949 9.18582 44.4713C18.2643 44.5232 22.8413 44.9722 22.917 45.821C22.9953 46.7087 18.1521 48.0325 8.38732 49.7924C5.12545 50.636 3.17093 52.3309 3.36925 53.3329C3.55975 54.2959 5.82218 55.0564 8.76569 54.8565C18.9297 52.9825 24.1382 52.4893 24.3888 53.3796C24.6262 54.2258 20.3988 56.3179 11.7014 59.6559C9.71555 60.8032 8.65088 62.4541 9.00316 63.3314C9.38675 64.2892 11.6622 64.8473 14.3605 63.7623C24.3105 60.3853 29.4512 59.0823 29.7878 59.8532C30.0487 60.4528 27.4001 62.3113 21.8393 65.4235C20.1353 66.7706 19.0967 68.3566 19.4907 69.1898C19.9369 70.1372 22.3716 70.402 25.3595 69.1898L45.2647 58.9733C45.7527 58.6514 50.7734 55.2225 50.9926 48.8372V48.8346Z" fill="#221D20"/>
</svg>
