<svg width="20" height="25" viewBox="0 0 20 25" fill="none" xmlns="http://www.w3.org/2000/svg">
<path d="M19.2106 24.121H0.594727V13.0242C0.594727 13.0242 0.694676 13.051 0.719663 13.0242C0.769639 12.9706 0.919566 13.051 0.969542 12.9974C0.969542 12.9974 1.06949 13.0242 1.06949 12.9974C1.09448 12.9974 1.4693 13.051 1.4693 13.0242C1.49429 12.9974 1.64421 13.0242 1.6692 12.9974H1.91908L1.94407 12.9706C1.99404 12.9974 2.09399 12.9974 2.14397 12.9974C2.24392 12.9974 2.34387 12.9974 2.44382 12.9706H2.61873C2.61873 12.9706 2.71869 12.9438 2.74367 12.9706C2.79365 12.9974 2.91859 12.917 2.99355 12.9438C3.01854 12.9706 3.0935 12.9706 3.14348 12.9974C3.19345 13.051 3.24343 13.051 3.2934 13.0242C3.39335 12.9706 3.39335 13.051 3.46832 13.0242C3.46832 13.0242 3.47664 13.0153 3.4933 12.9974C3.4933 12.9974 3.54328 12.9974 3.61825 12.9974C3.64323 12.9974 3.71819 13.0242 3.74318 13.0242C3.79316 12.9974 3.89311 12.9706 3.94308 12.917C3.96807 12.917 4.06802 12.9438 4.09301 12.9438C4.118 12.9706 4.14299 12.9438 4.19296 12.9438H4.21795C4.21795 12.9438 4.99257 12.9706 5.11751 12.917H5.21746C5.21746 12.917 5.36738 12.8902 5.41736 12.917C5.41736 12.9438 5.44235 12.917 5.44235 12.917C5.49232 12.9706 5.46733 12.8902 5.5423 12.917C5.56728 12.9438 5.66723 12.917 5.71721 12.917C5.76719 12.917 6.89164 12.9438 6.91663 12.9438C6.9666 12.9706 7.06655 12.9706 7.11653 12.9706H7.14152C7.14152 12.9706 7.26645 12.9438 7.31643 12.9438H7.56631C7.56631 12.9438 7.71623 12.917 7.76621 12.9438H7.86616C7.86616 12.9438 7.99109 12.917 8.01608 12.9438C8.06606 12.9438 8.191 12.917 8.26596 12.917C8.29095 12.9438 8.36591 12.917 8.3909 12.917C8.44088 12.8902 8.49085 12.8902 8.51584 12.9438C8.54083 12.9438 8.56582 12.917 8.61579 12.917C8.51584 12.8634 8.44088 12.8634 8.34093 12.8098C8.24097 12.8098 8.191 12.8098 8.14102 12.783C8.09105 12.783 8.01609 12.7294 7.96611 12.6758C7.91614 12.6489 7.86616 12.6489 7.81618 12.6489V12.5417C7.81618 12.5417 7.66625 12.4345 7.61628 12.3809C7.5663 12.3541 7.49134 12.3273 7.44137 12.2737C7.41638 12.2469 7.31643 12.1665 7.29144 12.1397C7.26645 12.1129 7.24146 12.0861 7.24146 12.0861C7.21648 12.0593 7.19149 11.9789 7.19149 11.9521C7.1665 11.9252 7.14152 11.8984 7.14152 11.8448C7.04156 11.684 6.9666 11.5768 6.81667 11.5232C6.64176 11.416 6.46685 11.3088 6.31692 11.0943C6.26694 10.9871 6.16699 10.9335 6.06704 10.8799C5.89213 10.7459 5.7422 10.6655 5.59227 10.5583C5.46734 10.4242 5.44235 10.3438 5.41736 10.183V10.049C5.41736 10.049 5.39237 9.86136 5.31741 9.75414C5.21746 9.70053 5.19247 9.59332 5.19247 9.4861C5.16748 9.43249 5.09252 9.35209 5.04255 9.32528C4.94259 9.19126 4.86763 9.05724 4.76768 8.97683C4.7177 8.86961 4.64274 8.78921 4.59277 8.7088C4.56778 8.65519 4.54279 8.57477 4.54279 8.52116V8.09231C4.54279 8.09231 4.5178 7.98509 4.5178 7.93148C4.54279 7.82427 4.54279 7.71705 4.54279 7.58303C4.56778 7.52943 4.54279 7.44902 4.5178 7.39541C4.49281 7.3418 4.46782 7.23459 4.46782 7.18098C4.46782 7.15417 4.49281 7.12737 4.5178 7.07376C4.49281 7.04696 4.49281 6.96655 4.46782 6.93974C4.41785 6.77892 4.34289 6.6449 4.29291 6.51088C4.26792 6.48408 4.26792 6.40367 4.26792 6.37686C4.26792 6.32326 4.26792 6.21604 4.29291 6.18924C4.3179 6.05522 4.34289 5.97481 4.39286 5.84079C4.41785 5.73358 4.44284 5.65316 4.49281 5.51915C4.5178 5.41193 4.54279 5.33152 4.59277 5.1975C4.61775 5.1707 4.61775 5.14389 4.64274 5.09029C4.69272 4.98307 4.76768 4.87585 4.84264 4.76864C4.89262 4.71503 5.04255 4.39338 5.04255 4.31297C5.04255 4.23256 5.04255 4.15215 5.06753 4.12535C5.09252 4.07174 5.09252 3.99133 5.09252 3.93772C5.06753 3.88411 5.09252 3.83051 5.11751 3.8037C5.16748 3.69649 5.24245 3.61608 5.29242 3.50886C5.29242 3.48206 5.29242 3.40165 5.31741 3.37484C5.41736 3.32124 5.44235 3.24082 5.49233 3.16041C5.5423 3.02639 5.66724 2.89237 5.76719 2.81196C5.81716 2.70475 5.91711 2.65114 5.96709 2.54392C5.99208 2.51712 6.01707 2.49032 6.09203 2.43671C6.19198 2.30269 6.29193 2.22228 6.41687 2.11506C6.44186 2.06146 6.46685 2.00785 6.51682 1.95424C6.61677 1.82022 6.71672 1.6594 6.84166 1.57899C6.9666 1.52538 7.04156 1.47177 7.19149 1.44497C7.24146 1.44497 7.31643 1.41817 7.39139 1.41817C7.41638 1.41817 7.41638 1.39136 7.44137 1.39136C7.5663 1.41817 7.64127 1.36456 7.76621 1.36456C7.7912 1.36456 7.81618 1.36456 7.81618 1.33776C7.86616 1.31095 7.96611 1.31095 8.01608 1.31095C8.14102 1.31095 8.21599 1.25735 8.31594 1.17693C8.46586 1.12333 8.61579 1.06972 8.76572 1.06972C8.91564 1.04292 9.11554 0.962502 9.26547 0.882091C9.29046 0.855287 9.36542 0.828483 9.39041 0.774876H9.4154C9.4154 0.774876 9.46537 0.80168 9.51535 0.80168C9.56532 0.80168 9.56533 0.801679 9.6153 0.774876C9.71525 0.748072 9.8152 0.748072 9.91515 0.774876C9.96513 0.774876 10.0151 0.774875 10.0651 0.748071C10.165 0.721268 10.24 0.640858 10.3399 0.614054C10.3649 0.587251 10.4399 0.560446 10.4899 0.58725C10.5898 0.58725 10.6648 0.560445 10.7647 0.533641C10.8647 0.533641 10.9646 0.506838 11.0896 0.533641C11.1146 0.533641 11.1395 0.560446 11.1395 0.560446C11.2645 0.560446 11.3395 0.560446 11.4394 0.58725C11.4894 0.614054 11.5643 0.614053 11.6393 0.640856C11.7143 0.66766 11.8392 0.694464 11.9392 0.748071C11.9641 0.748071 12.0391 0.774876 12.0641 0.774876C12.0891 0.801679 12.1141 0.801681 12.1641 0.828484C12.314 0.962503 12.4639 1.01611 12.6388 1.04291C12.6888 1.06972 12.7638 1.06972 12.8137 1.09652C12.9886 1.15013 13.1636 1.23054 13.3635 1.28415C13.5134 1.31095 13.6383 1.41817 13.7633 1.47177C13.9132 1.52538 14.0381 1.60579 14.1881 1.6594C14.238 1.6594 14.313 1.6862 14.363 1.76662C14.388 1.79342 14.4129 1.82022 14.4629 1.87383C14.4879 1.90063 14.5629 1.98105 14.5629 2.03465C14.5879 2.08826 14.6128 2.14187 14.6128 2.14187C14.7128 2.24908 14.7628 2.32949 14.7878 2.43671C14.8127 2.46351 14.8877 2.54393 14.9377 2.57073C14.9627 2.59753 14.9877 2.62434 15.0376 2.67794C15.0626 2.70475 15.1376 2.78516 15.1626 2.81196C15.1876 2.86557 15.2126 2.91918 15.2625 2.97278C15.2875 2.99959 15.3125 3.08 15.3625 3.1068C15.4874 3.26763 15.6124 3.42845 15.6873 3.58927C15.7123 3.64288 15.7873 3.69649 15.8123 3.72329C15.9122 3.7501 15.9622 3.83051 16.0122 3.88411C16.0122 3.88411 16.0371 3.88411 16.0621 3.91092C16.0871 3.93772 16.1121 3.93772 16.1621 3.96453C16.1871 4.01813 16.262 4.09854 16.312 4.12535C16.362 4.23256 16.437 4.28617 16.4869 4.39339C16.4869 4.44699 16.5119 4.44699 16.5369 4.5006C16.5369 4.52741 16.5619 4.55421 16.5869 4.60782C16.5869 4.63462 16.6119 4.63462 16.6119 4.66142C16.6119 4.79544 16.7118 4.87585 16.7118 4.98307C16.7368 5.09028 16.7368 5.1707 16.7118 5.27791V5.38513C16.7118 5.38513 16.7368 5.43873 16.7368 5.49234C16.7618 5.62636 16.8368 5.76038 16.7618 5.86759C16.7368 5.9212 16.7368 6.00161 16.7368 6.02842C16.7618 6.13563 16.7618 6.18924 16.7368 6.24285C16.7368 6.26965 16.7118 6.37687 16.7118 6.40367V6.45728C16.7618 6.6181 16.7618 6.75212 16.7368 6.88614C16.7118 7.02015 16.7118 7.15417 16.7368 7.26139C16.7618 7.28819 16.7618 7.36861 16.8368 7.42221C16.8867 7.58304 16.8867 7.77066 16.8617 7.95829V8.09231C16.8617 8.09231 16.8867 8.30674 16.8617 8.44076C16.8617 8.49436 16.8368 8.57477 16.8617 8.62838C16.8617 8.68199 16.8617 8.7624 16.8368 8.81601C16.7868 8.86962 16.7368 8.95003 16.7368 9.00363C16.7118 9.00363 16.7118 9.03044 16.6868 9.03044C16.6369 9.13765 16.5619 9.19126 16.5119 9.29848C16.4619 9.40569 16.387 9.4593 16.337 9.51291C16.237 9.62012 16.1871 9.70053 16.1871 9.80775C16.1871 9.86136 16.1621 9.94177 16.1371 9.99538C16.1121 10.049 16.0871 10.1026 16.0871 10.1562C16.0621 10.183 16.0621 10.2634 16.0371 10.2902C15.9372 10.3438 15.9122 10.4778 15.8622 10.5851C15.8123 10.6387 15.7623 10.7191 15.7123 10.7459C15.7123 10.7727 15.6873 10.7995 15.6623 10.7995C15.6373 10.9335 15.5374 10.9603 15.4874 11.0675C15.3875 11.2015 15.3375 11.3356 15.2875 11.4428C15.2625 11.6036 15.1626 11.7108 15.0376 11.7912C14.9377 11.818 14.8627 11.8984 14.7878 11.8984C14.7628 11.9252 14.7378 11.9521 14.7378 12.0057C14.6878 12.0593 14.5879 12.1397 14.4879 12.1933C14.388 12.2469 14.288 12.3273 14.1881 12.3809C14.1881 12.3809 14.1631 12.4077 14.1381 12.4077C13.9632 12.4613 13.8132 12.5953 13.6383 12.6758H13.5884C13.5884 12.6758 13.4634 12.7294 13.4384 12.783C13.2635 12.8902 13.0886 12.8902 12.8637 12.9438C12.7638 12.9706 12.6888 12.9706 12.5888 12.9974C12.4889 13.0242 12.4139 13.051 12.289 13.1314C12.164 13.2118 12.0141 13.2386 11.8642 13.1582C11.8392 13.1314 11.8142 13.1314 11.7642 13.1314C11.5144 13.1582 11.3145 13.1582 11.0646 13.1314H10.9646C10.9646 13.1314 10.8647 13.1582 10.8147 13.1582C10.8147 13.8015 10.7897 13.7747 10.7897 13.9623V14.0964C10.7897 14.0964 10.8397 14.2304 10.8397 14.3108C10.8647 14.418 10.8397 14.4984 10.8647 14.6056C10.8647 14.6056 10.8647 14.7128 10.8397 14.7396C10.8397 14.7664 10.8397 14.7933 10.8647 14.8469C10.8897 14.9809 10.9147 15.1149 10.8897 15.2221C10.8647 15.2489 10.8897 15.3293 10.8897 15.3561C10.9147 15.4097 10.9147 15.4901 10.8897 15.5438C10.8647 15.5438 10.9147 15.5438 10.9147 15.5706C10.8897 15.5706 10.9147 15.5974 10.9147 15.5974C10.8897 15.6242 10.9397 15.651 10.9147 15.7046C10.9147 15.7314 10.9397 15.8118 10.9147 15.8386C10.9147 15.8654 10.9396 15.9458 10.9396 15.9726C10.9147 16.0262 10.9147 16.0798 10.9147 16.1334V16.3479C10.9147 16.3479 10.9147 16.4551 10.9396 16.5087C10.9396 16.5087 10.9147 16.6695 10.9396 16.7767C10.9396 16.8303 10.9896 16.8839 10.9396 16.9376C10.9396 17.0448 10.8397 17.0984 10.9147 17.152C10.9147 17.152 10.923 17.1699 10.9396 17.2056C10.9396 17.2056 10.9896 17.2324 10.9896 17.2592V17.3128C10.9896 17.3128 10.9896 17.4736 10.9396 17.5272V17.5808C10.9396 17.5808 10.9896 17.6344 10.9896 17.7149C10.9396 17.7417 10.9396 17.8221 10.9896 17.8757C10.9896 17.9025 11.0146 17.9025 10.9896 17.9293C10.9896 17.9829 10.9896 18.0633 11.0146 18.1169C11.0146 18.1169 11.0396 18.1705 11.0146 18.2509C11.0646 18.3045 11.0146 18.4118 11.0146 18.4386C11.0396 18.4654 11.0146 18.5458 11.0396 18.5726C11.0396 18.5994 11.0646 18.6262 11.0396 18.6798C11.0396 18.6798 11.0146 18.6798 11.0396 18.7066C11.0396 18.8138 11.0896 18.8406 11.0896 18.8942C11.0896 19.0014 11.0396 19.0551 11.0396 19.1623C11.0396 19.1623 11.0396 19.3231 11.0646 19.3767C11.0646 19.3767 11.0896 19.5107 11.0896 19.5375C11.1146 19.5643 11.0896 19.5643 11.0896 19.5911V19.7519C11.0896 19.7519 11.1146 19.8592 11.1146 19.9128C11.0896 19.9664 11.0896 20.02 11.1146 20.0736C11.1146 20.1004 11.1146 20.1808 11.0896 20.2076C11.0896 20.2344 11.0896 20.2612 11.1146 20.3148C11.1146 20.3148 11.1229 20.3506 11.1395 20.422C11.1395 20.422 11.0896 20.6097 11.1146 20.6901C11.1146 20.6901 11.1229 20.699 11.1395 20.7169V20.8241C11.1395 20.8241 11.1146 20.9581 11.1146 21.0117C11.1146 21.0653 11.1146 21.7622 11.1395 21.8158V21.9767C11.1395 21.9767 11.1146 22.0035 11.1146 22.0303C11.1396 22.1375 11.1395 22.2179 11.1395 22.3251C11.1395 22.3519 11.1645 22.4323 11.1645 22.4591C11.1895 22.4591 11.1895 22.4859 11.1895 22.5127C11.1895 22.5127 11.2895 22.4591 11.3145 22.4055C11.3145 22.4055 11.3644 22.3787 11.3644 22.3519C11.3894 22.3251 11.3894 22.2983 11.4144 22.2447H11.4394L11.4644 22.2179H11.4894C11.4894 22.2179 11.5394 22.2715 11.5893 22.2447C11.6143 22.2179 11.6393 22.1911 11.6393 22.1107C11.6393 22.0839 11.6643 22.0571 11.6893 22.0035C11.7892 21.9499 11.8392 21.8694 11.9392 21.789C11.9392 21.7622 11.9641 21.7354 11.9891 21.655C12.0141 21.6282 12.0391 21.6282 12.0891 21.5478C12.1141 21.521 12.1391 21.4942 12.1391 21.4406C12.1641 21.4138 12.164 21.387 12.189 21.387C12.214 21.3602 12.214 21.2798 12.214 21.253C12.214 21.2262 12.239 21.2262 12.239 21.2262C12.264 21.1189 12.289 21.0653 12.364 21.0117C12.3889 20.9849 12.4139 20.9581 12.4139 20.9045H12.4389C12.4389 20.9045 12.4889 20.7705 12.5389 20.7437C12.5639 20.7169 12.5639 20.6901 12.5389 20.6097C12.5389 20.6097 12.5389 20.5829 12.5639 20.5829C12.5888 20.5561 12.5888 20.5293 12.6138 20.4488C12.6138 20.3952 12.6388 20.3416 12.6388 20.288C12.6638 20.2612 12.6638 20.2344 12.6888 20.2344C12.7388 20.2076 12.8137 20.1808 12.8387 20.1004C12.8387 20.1004 12.847 20.0825 12.8637 20.0468C12.8637 20.0468 12.8887 19.9932 12.8887 19.9396C12.8887 19.886 12.9137 19.9128 12.9137 19.886C12.9637 19.8324 13.0136 19.7519 13.0636 19.6983C13.0886 19.6715 13.1636 19.6715 13.1636 19.5911C13.1885 19.5643 13.2135 19.5375 13.2635 19.4839C13.2885 19.4303 13.3135 19.3767 13.3635 19.3499C13.3884 19.3231 13.4134 19.2963 13.4634 19.2963H13.4884C13.4884 19.2963 13.5384 19.2695 13.5884 19.2695C13.6133 19.1623 13.6883 19.0819 13.7133 19.0014C13.7383 19.0014 13.7383 18.9746 13.7383 18.9746C13.7883 19.0014 13.8382 18.9746 13.8382 18.9478C13.8382 18.921 13.8632 18.921 13.8632 18.8942C13.8632 18.8674 13.8882 18.8674 13.9132 18.8406C13.9632 18.8406 14.0131 18.8406 14.0381 18.8138C14.0881 18.8138 14.1381 18.7602 14.1631 18.6798C14.1881 18.653 14.213 18.653 14.213 18.6262C14.238 18.5994 14.263 18.5726 14.313 18.519C14.363 18.4922 14.4129 18.4118 14.4379 18.3582C14.4379 18.3045 14.4629 18.2509 14.5379 18.2509C14.5629 18.2509 14.5629 18.2241 14.5879 18.1973C14.6128 18.1705 14.6378 18.1437 14.6878 18.0901C14.7378 18.0901 14.8127 18.0633 14.8127 17.9829C14.8377 17.9293 14.9127 17.8489 14.9377 17.7953C14.9627 17.7417 15.0376 17.6345 15.0876 17.5808C15.0876 17.554 15.0876 17.5272 15.1126 17.5272V17.4736C15.1126 17.4736 15.1626 17.3396 15.2625 17.3128C15.2875 17.3128 15.3125 17.286 15.3125 17.2592C15.3625 17.2324 15.4125 17.152 15.4125 17.0984C15.4374 17.0448 15.4624 16.9912 15.5124 16.9644C15.5374 16.9108 15.6124 16.8303 15.6373 16.7767C15.6373 16.6695 15.6873 16.6159 15.7373 16.5623C15.7623 16.5623 15.7623 16.5355 15.7873 16.5355C15.8123 16.5087 15.8872 16.4819 15.9122 16.4015C15.9372 16.3747 15.9622 16.2943 16.0122 16.2675C16.0371 16.2675 16.0621 16.2407 16.0621 16.2139C16.0871 16.187 16.0871 16.1602 16.1621 16.1066C16.1871 16.0798 16.2121 16.053 16.2121 15.9994C16.237 15.9726 16.262 15.8922 16.312 15.8654C16.337 15.8386 16.362 15.7582 16.362 15.7046C16.387 15.6778 16.387 15.651 16.412 15.651C16.437 15.6242 16.4619 15.5974 16.4619 15.517C16.4869 15.4901 16.5119 15.4097 16.5619 15.3829C16.5869 15.3561 16.5869 15.2757 16.5869 15.2221C16.6119 15.1953 16.6369 15.1953 16.6868 15.1685C16.7118 15.1685 16.7868 15.1417 16.7868 15.1149C16.8118 15.0613 16.8867 15.0077 16.9117 14.9541C16.9367 14.9273 16.9617 14.9005 17.0117 14.8469C17.0367 14.8469 17.0616 14.8201 17.1116 14.7932C17.1366 14.7396 17.1366 14.6592 17.1616 14.6056C17.2116 14.552 17.2615 14.4984 17.2865 14.4448C17.3115 14.418 17.3365 14.3912 17.3865 14.3108C17.4115 14.284 17.4115 14.2572 17.4365 14.2036C17.4614 14.1768 17.4864 14.1768 17.4864 14.15C17.5364 14.0964 17.6114 14.0427 17.6614 13.9891C17.6614 13.9623 17.6863 13.9623 17.6863 13.9355C17.7113 13.9087 17.7113 13.8819 17.7363 13.8283C17.7613 13.7747 17.8363 13.6943 17.8613 13.6407C17.8613 13.6139 17.8862 13.5335 17.9612 13.5335C17.9862 13.5067 18.0112 13.5067 18.0112 13.4799C18.0112 13.4263 18.0612 13.3727 18.1111 13.3458C18.1361 13.3458 18.1611 13.319 18.2111 13.2922C18.2361 13.2386 18.2611 13.1582 18.311 13.1314C18.311 13.1314 18.461 12.9438 18.5609 12.8366C18.6109 12.783 18.6859 12.7294 18.8108 12.7026H18.9107C18.9107 12.7026 18.9607 12.7026 18.9607 12.7294C18.9857 12.7562 18.9857 12.783 18.9857 12.783C19.0107 12.917 19.0357 12.9974 19.0856 13.1314V13.2654C19.0856 13.2654 19.0856 13.4263 19.1106 13.5335V13.6675C19.1106 13.6675 19.1356 13.7747 19.1356 13.8283V14.1232C19.1356 14.1232 19.1606 14.2572 19.1606 14.3376C19.1356 14.3644 19.1356 14.4448 19.1606 14.4984C19.1856 14.6056 19.1856 14.7128 19.1856 14.8201V14.9541C19.1856 14.9541 19.1856 15.0613 19.1606 15.1149V15.2757C19.1606 15.2757 19.1856 15.3829 19.1856 15.4365V15.4901C19.1856 15.4901 19.2106 15.7046 19.1856 15.8118C19.1856 15.8386 19.1856 15.8654 19.2106 15.8654C19.2106 15.8922 19.2356 15.919 19.2106 15.9994C19.2106 16.053 19.2356 16.1334 19.2356 16.187V16.4015C19.2356 16.4015 19.2106 16.5891 19.2356 16.6695C19.2606 16.7231 19.2606 16.7767 19.2356 16.7767C19.2106 16.8839 19.2106 16.9912 19.1856 17.0716V17.1788C19.1856 17.1788 19.1606 17.3664 19.1606 17.4468V17.5004C19.1606 17.5004 19.1606 17.6881 19.1856 17.7953V17.8489C19.1856 17.8489 19.1606 17.9561 19.1606 18.0097V18.1973C19.1606 18.1973 19.1356 18.2509 19.1356 18.3045C19.1356 18.4118 19.1356 18.4654 19.1106 18.5726C19.1106 18.5726 19.1106 18.5994 19.1356 18.5994V18.7334C19.1356 18.7334 19.1356 18.8674 19.1606 18.8942C19.1606 18.921 19.1856 18.9478 19.1606 19.0014V19.4839C19.1606 19.4839 19.1606 19.5107 19.1856 19.5107V19.5643C19.1856 19.5643 19.1606 19.6179 19.1856 19.6715V19.8056C19.1856 19.8056 19.1856 19.9932 19.2106 20.1004V20.422C19.2106 20.422 19.2106 20.5293 19.1856 20.5561V20.8241C19.1856 20.8241 19.2106 20.8509 19.2106 20.8777V21.0385C19.2106 21.0385 19.2106 21.2262 19.1856 21.3066V21.4942C19.1856 21.4942 19.1856 21.521 19.2106 21.5478C19.2106 21.6014 19.2106 21.6818 19.1856 21.7086V21.8158C19.1856 21.8158 19.1606 21.8426 19.1856 21.8426C19.2106 21.8963 19.1856 21.9499 19.1856 22.0035C19.2106 22.0303 19.2106 22.1107 19.2106 22.1643C19.2106 22.1643 19.1856 22.2983 19.1856 22.3519C19.2106 22.3787 19.2106 22.4591 19.2106 22.5127V22.5663C19.2106 22.5663 19.1856 22.62 19.1856 22.6736C19.1856 22.7272 19.1606 22.7808 19.1606 22.8076C19.1606 22.8344 19.1606 22.8612 19.1856 22.8612C19.2106 22.8612 19.1856 23.2364 19.1856 23.29C19.1856 23.3437 19.2106 23.3437 19.2106 23.3973C19.2106 23.3973 19.2356 23.8797 19.2106 23.9333C19.2106 23.9333 19.2106 23.9601 19.2356 23.9601C19.2356 23.9869 19.2606 23.9869 19.2606 23.9869V24.0406L19.2106 24.121Z" fill="#221D20"/>
</svg>
