<svg width="32" height="33" viewBox="0 0 32 33" fill="none" xmlns="http://www.w3.org/2000/svg">
<path d="M9.3312 0.182129C4.1856 0.182129 0 4.36773 0 9.51973V22.8509C0 27.9965 4.1856 32.1821 9.3376 32.1821H22.6688C27.8144 32.1821 32 27.9965 32 22.8445V9.51333C32 4.36773 27.8144 0.182129 22.6624 0.182129H9.3312ZM25.6 5.30213C26.304 5.30213 26.88 5.87813 26.88 6.58213C26.88 7.28613 26.304 7.86213 25.6 7.86213C24.896 7.86213 24.32 7.28613 24.32 6.58213C24.32 5.87813 24.896 5.30213 25.6 5.30213ZM16 7.86213C20.5888 7.86213 24.32 11.5933 24.32 16.1821C24.32 20.7709 20.5888 24.5021 16 24.5021C11.4112 24.5021 7.68 20.7709 7.68 16.1821C7.68 11.5933 11.4112 7.86213 16 7.86213ZM16 10.4221C12.8192 10.4221 10.24 13.0013 10.24 16.1821C10.24 19.3629 12.8192 21.9421 16 21.9421C19.1808 21.9421 21.76 19.3629 21.76 16.1821C21.76 13.0013 19.1808 10.4221 16 10.4221Z" fill="#221D20"/>
</svg>
