<svg width="32" height="33" viewBox="0 0 32 33" fill="none" xmlns="http://www.w3.org/2000/svg">
<path d="M28.1905 0.182129H3.80952C1.70667 0.182129 0 1.8888 0 3.99165V28.3726C0 30.4755 1.70667 32.1821 3.80952 32.1821H28.1905C30.2933 32.1821 32 30.4755 32 28.3726V3.99165C32 1.8888 30.2933 0.182129 28.1905 0.182129ZM9.90476 12.3726V26.8488H5.33333V12.3726H9.90476ZM5.33333 8.15927C5.33333 7.09261 6.24762 6.27737 7.61905 6.27737C8.99048 6.27737 9.85143 7.09261 9.90476 8.15927C9.90476 9.22594 9.05143 10.0869 7.61905 10.0869C6.18667 10.0869 5.33333 9.22594 5.33333 8.15927ZM26.6667 26.8488H22.0952V19.2297C22.0952 17.7059 21.3333 16.1821 19.4286 16.1517H19.3676C17.5238 16.1517 16.7619 17.7212 16.7619 19.2297V26.8488H12.1905V12.3726H16.7619V14.3231C16.7619 14.3231 18.2324 12.3726 21.1886 12.3726C24.1448 12.3726 26.6667 14.4526 26.6667 18.6659V26.8488Z" fill="#221D20"/>
</svg>
