<svg width="448" height="449" viewBox="0 0 448 449" fill="none" xmlns="http://www.w3.org/2000/svg">
<path d="M447.85 144.487C447.737 141.806 447.323 141.053 444.043 141.956C440.867 142.831 438.132 142.286 435.519 140.705C432.972 139.162 430.754 137.112 427.342 136.698C427.239 136.679 427.136 136.604 427.051 136.538C426.102 135.72 424.777 135.513 423.611 135.033C421.797 134.327 419.946 133.509 418.508 132.389C417.625 131.722 416.76 131.119 415.764 130.593C412.7 128.975 409.288 128.081 405.755 127.394C404.354 127.131 402.888 126.924 401.619 126.425C397.7 124.883 393.603 123.838 389.232 123.547C385.191 123.265 381.883 121.797 378.997 119.652C377.719 118.712 376.375 118.016 374.693 117.649C372.954 117.273 371.197 116.83 369.646 116.134C365.163 114.083 360.633 112.117 355.831 110.594C355.05 110.349 354.383 109.907 353.631 109.596C352.184 108.976 351.291 108.063 350.718 106.746C350.069 105.269 349.045 103.905 348.284 102.466C347.955 101.845 347.814 101.149 347.682 100.481C347.532 99.8038 347.739 98.9759 347.372 98.4491C345.408 95.627 344.289 92.391 341.677 89.8794C341.573 89.7853 341.686 89.5218 341.695 89.3337C342.147 88.995 342.974 89.5595 343.359 88.6188C343.133 88.346 342.814 87.9509 342.504 87.5652C341.977 86.9161 341.367 86.3141 340.934 85.6368C339.675 83.6143 339.224 81.2814 337.588 79.3906C337.269 79.0237 337.231 78.4404 337.184 77.9419C337.043 76.4838 336.432 75.2327 335.229 74.1791C334.835 73.831 334.562 73.3607 334.299 72.9186C332.701 70.1435 330.953 67.4155 329.59 64.5558C328.35 61.9688 327.184 59.3067 326.621 56.5598C325.822 52.6936 324.29 49.2318 321.423 46.2216C320.512 45.2715 319.948 44.2367 319.863 42.9574C319.807 42.0637 319.374 41.2077 319.074 40.3516C318.876 39.7872 318.35 39.2134 318.435 38.6866C318.679 36.9369 317.871 35.5635 316.968 34.143C316.423 33.287 316.301 32.2522 316.01 31.2927C315.85 30.8129 315.822 30.2955 315.568 29.8628C314.722 28.4894 314.619 27.022 314.807 25.4604C314.929 24.5668 314.788 23.6354 314.572 22.7699C314.064 20.8133 313.453 18.8755 312.861 16.9376C312.683 16.3544 312.598 15.7053 312.203 15.2443C310.737 13.4664 310.108 11.5098 310.408 9.28976C310.578 8.01041 309.882 7.13562 308.463 6.75934C307.918 6.59942 307.26 6.58051 306.668 6.65576C304.685 6.88153 302.824 6.6558 300.935 6.22308C297.439 5.42348 293.811 5.0378 290.136 5.75273C287.194 6.33596 284.319 6.33592 281.405 6.18541C280.202 6.11956 278.971 5.98791 277.768 6.1102C273.2 6.57114 268.83 5.83741 264.544 4.94374C262.467 4.51102 260.494 4.33233 258.492 4.99082C257.374 5.3577 256.396 5.29185 255.297 5.226C252.045 5.03786 248.793 4.62394 245.485 5.09429C243.201 5.43294 240.917 5.85625 238.643 6.27016C236.115 6.74991 233.615 7.19198 231.124 6.43942C230.588 6.27009 229.912 6.34543 229.319 6.40187C227.261 6.5806 225.485 6.10076 223.887 5.14125C223.399 4.85904 222.872 4.62391 222.374 4.36051C221.415 3.83372 220.325 3.61737 219.245 4.01246C217.797 4.54866 216.406 4.44514 214.949 4.32285C214 4.23819 212.966 4.27588 212.045 4.51106C209.903 5.04726 207.854 4.81202 205.965 4.20997C203.164 3.35394 200.354 3.27865 197.384 3.71137C194.583 4.12528 191.811 4.11598 189.113 3.35402C188.117 3.07181 186.971 3.04352 185.89 3.05293C183.954 3.08115 181.989 3.32575 180.044 3.30694C175.552 3.2599 171.04 3.48567 166.623 2.71429C164.274 2.3192 161.839 2.08401 159.424 2.11223C157.479 2.13105 155.552 2.21571 153.644 1.87706C151.887 1.56663 150.11 1.32201 148.325 1.13387C147.131 1.01158 145.881 0.88934 144.706 1.06807C141.483 1.53842 138.4 1.44439 135.468 0.165039C133.174 1.41617 130.769 1.2844 128.344 1.03982C127.037 0.917533 125.665 0.814116 124.359 0.983441C121.464 1.36913 118.598 2.06521 115.675 1.6513C115.336 1.60427 114.942 1.7266 114.594 1.81126C109.603 3.04357 104.528 3.6926 99.3969 3.98421C97.9307 4.05947 96.4457 4.08773 95.0266 4.37935C90.5342 5.2636 86.0324 5.09429 81.54 5.09429C80.29 5.09429 79.134 5.16956 77.9686 5.58347C74.792 6.7029 71.3992 6.82509 68.2601 6.42059C64.7546 5.96905 61.2583 6.1008 57.7528 5.99732C56.296 5.95028 54.8112 5.93148 53.3826 6.12903C47.8376 6.87218 42.2173 7.05093 36.7663 8.49961C36.428 8.59368 36.0426 8.58425 35.6855 8.59365C32.5182 8.73476 29.3604 8.81937 26.2026 9.00751C22.4244 9.21446 18.7027 10.0235 14.9058 10.0141C13.9001 10.0141 13.0731 10.6162 12.8193 11.5475C12.5562 12.5446 12.3024 13.5511 12.0957 14.5482C11.7667 16.2697 11.5694 18.0006 11.1558 19.7032C10.9021 20.6722 10.5731 21.7823 9.84003 22.516C8.60885 23.7483 7.58451 24.9523 7.21798 26.5327C7.0958 27.0783 6.3345 27.5204 6.00555 28.0661C4.64279 30.2673 3.20482 32.4403 2.10522 34.7074C1.71049 35.5352 1.55075 36.4477 0.968057 37.2661C0.545131 37.8776 0.319544 38.5831 0 39.2792C0.667282 39.6649 1.22173 39.9942 1.82322 40.3516C1.66345 41.2641 1.67295 42.2048 1.33461 43.0608C0.620332 44.8293 0.949278 46.5226 1.45679 48.15C2.09588 50.1819 3.03561 52.1292 3.82507 54.114C4.50175 55.8167 5.5638 57.4817 5.74237 59.2408C6.05252 62.2981 7.07699 65.1107 8.1484 67.9517C8.7123 69.4756 8.95666 71.0842 9.44538 72.6457C10.2536 75.2327 11.3156 77.7443 11.5975 80.5099C11.7949 82.5324 13.4867 84.2916 13.6652 86.427C14.6333 87.1231 14.7178 88.092 14.9528 89.0985C15.1971 90.1521 15.9677 91.0834 16.5316 92.0712C17.1331 93.1341 17.9227 94.1501 18.355 95.279C19.0129 96.9816 19.5203 98.7501 19.9433 100.519C20.4602 102.682 20.9676 104.827 21.9169 106.897C23.0447 109.399 24.1162 111.948 23.8718 114.78C23.7684 115.965 24.1162 117.188 24.3699 118.373C24.9057 120.838 25.6762 123.255 26.0616 125.739C26.7665 130.235 27.4901 134.675 29.0033 139.031C30.4318 143.17 32.2739 147.111 34.5295 150.931C35.0746 151.834 35.3942 152.737 35.6291 153.743C36.1836 156.189 36.8133 158.654 37.7249 161.006C38.646 163.376 39.9806 165.606 41.0426 167.938C41.4749 168.86 41.7381 169.857 41.9636 170.826C42.4053 172.689 42.5745 174.627 43.223 176.424C44.0782 178.804 45.2624 181.099 46.315 183.422C47.0669 185.106 47.9597 186.752 48.58 188.464C49.2285 190.205 50.0368 191.832 51.2398 193.337C52.9409 195.482 53.58 197.918 52.9033 200.552C52.5744 201.86 52.9409 202.904 53.7304 203.967C55.1589 205.905 56.4652 207.918 56.8505 210.27C56.8787 210.467 56.9633 210.665 57.0667 210.834C58.2415 212.838 58.6644 215.011 58.6269 217.269C58.5987 218.736 59.1908 219.997 60.046 221.229C60.7415 222.254 61.2395 223.393 61.7565 224.503C62.217 225.5 61.9351 226.459 61.1362 227.334C62.2547 229.742 63.2603 232.132 63.8336 234.737C64.5666 238.077 65.9294 241.322 67.3579 244.492C68.4106 246.825 69.1624 249.243 70.1492 251.595C70.9105 253.373 71.7751 255.122 72.5645 256.9C73.0251 257.935 73.5796 258.942 73.7958 260.023C74.2657 262.337 75.2995 264.426 76.6341 266.448C77.3766 267.558 78.0063 268.772 78.3916 270.014C79.6886 274.284 80.7599 278.611 82.0851 282.873C82.9027 285.497 84.3031 287.896 86.4553 289.947C87.6207 291.048 88.6264 292.289 89.5568 293.559C90.8538 295.337 91.9345 297.219 93.2315 298.996C94.6036 300.887 95.5906 302.891 95.7879 305.167C95.8537 305.864 95.8631 306.635 96.239 307.228C98.2409 310.379 98.8893 314.085 101.624 316.945C102.329 317.698 102.611 318.751 103.053 319.673C104.848 323.473 106.596 327.293 108.438 331.065C108.833 331.883 109.406 332.702 110.139 333.304C111.624 334.536 112.461 336.003 112.996 337.697C113.306 338.637 113.898 339.531 114.528 340.35C116.21 342.532 117.799 344.724 118.316 347.386C118.447 348.054 118.974 348.647 119.284 349.296C120.139 351.055 121.154 352.767 121.765 354.573C122.188 355.862 122.752 357 123.598 358.101C125.628 360.716 127.282 363.444 127.028 366.774C126.981 367.272 127.178 367.761 127.225 368.269C127.376 369.906 127.817 371.43 129.002 372.757C129.472 373.293 129.659 374.017 129.913 374.676C130.355 375.804 130.656 376.99 131.173 378.09C132.169 380.226 133.287 382.323 134.359 384.421C134.96 385.616 135.374 386.839 135.505 388.184C135.609 389.256 136.173 390.291 136.624 391.316C137.235 392.709 137.968 394.082 138.597 395.474C139.199 396.782 139.65 398.137 140.308 399.406C141.492 401.702 142.357 404.063 142.78 406.584C143.212 409.143 143.625 411.758 145.543 413.94C146.144 414.608 146.473 415.596 146.492 416.471C146.539 418.032 146.905 419.434 147.883 420.751C148.287 421.297 148.287 422.096 148.343 422.792C148.625 426.019 148.889 429.236 150.42 432.218C150.796 432.942 151.097 433.723 151.285 434.504C151.445 435.153 151.37 435.859 151.407 436.526C150.872 436.715 150.543 436.837 150.204 436.94C149.781 437.072 149.199 437.006 149.189 437.646C150.853 437.721 152.535 437.702 154.18 437.89C156.078 438.107 157.93 438.558 159.819 438.841C163.851 439.461 167.676 440.506 171.191 442.208C173.371 443.262 175.646 444.099 178.258 444.278C180.185 444.41 182.093 444.616 184.02 444.823C185.73 445.002 187.262 445.472 188.568 446.432C189.16 446.874 189.941 447.307 190.721 447.382C192.384 447.533 194.085 447.42 195.767 447.448C196.595 447.448 197.421 447.542 198.249 447.589C200.41 447.749 202.478 448.182 204.705 448.182C207.544 448.172 210.278 447.702 213.07 447.429C215.541 447.175 217.459 446.3 219.301 444.955C220.842 443.836 222.017 442.528 223.07 441.108C225.758 437.477 229.32 434.664 234.066 432.971C235.457 432.472 236.688 431.814 237.59 430.751C239.902 428.041 242.214 425.342 244.554 422.642C246.086 420.864 247.637 419.114 249.225 417.383C250.588 415.897 251.923 414.43 252.806 412.67C253.859 410.582 254.911 408.4 256.518 406.603C258.67 404.157 259.629 401.476 260.569 398.701C261.349 396.396 262.552 394.233 264.46 392.398C266.922 390.009 268.887 387.394 270.447 384.572C270.917 383.725 271.255 382.831 271.762 382.013C272.458 380.912 273.116 379.793 274.037 378.833C275.606 377.159 276.847 375.409 277.223 373.312C277.411 372.267 277.909 371.28 278.915 370.621C280.268 369.718 281.057 368.655 281.18 367.235C281.208 366.877 281.649 366.529 281.903 366.172L281.875 366.228C282.148 365.89 282.411 365.523 282.721 365.203C284.46 363.453 286.414 361.844 287.514 359.709C287.834 359.107 288.585 358.543 289.29 358.166C291.273 357.141 292.552 355.683 293.679 354.037C294.271 353.171 295.127 352.287 296.104 351.751C299.986 349.644 302.852 346.916 304.375 343.285C304.798 342.287 305.54 341.751 306.799 341.685C307.391 341.657 307.965 341.563 307.88 341.572C309.675 340.265 311 339.343 312.26 338.355C313.059 337.734 313.961 337.085 314.497 336.305C315.342 335.082 316.546 334.254 317.936 333.548C319.083 332.956 320.22 332.344 321.423 331.714C321.357 331.441 321.254 331.159 321.235 330.867C321.16 329.785 321.715 329.334 322.927 329.503C323.481 329.579 324.008 329.767 324.543 329.908C325.84 327.208 326.489 326.512 328.604 325.562C329.844 324.997 330.493 325.138 331.273 326.192C331.508 326.512 331.639 326.869 331.808 327.217C332.908 325.731 333.989 324.235 335.107 322.768C335.37 322.429 335.728 322.091 336.122 321.865C340.502 319.419 343.913 316.089 347.654 313.069C348.819 312.119 349.881 311.037 351.207 310.322C354.496 308.573 356.78 305.892 359.834 303.944C360.314 303.634 360.802 303.173 360.934 302.722C361.441 301.01 362.936 299.965 364.336 298.771C366.676 296.776 368.913 294.744 369.702 291.838C370.088 290.417 371.178 288.931 372.409 287.84C374.223 286.222 375.107 284.472 375.586 282.393C376.028 280.371 376.93 278.442 379.176 277.153C380.078 276.636 380.332 275.883 380.426 275.027C380.84 271.697 382.174 268.687 385.266 266.298C385.219 264.52 386.037 262.977 388.001 262.253C390.266 261.425 391.197 260.08 391.544 258.236C391.619 257.841 391.854 257.465 391.995 257.126C394.392 256.59 394.618 258.452 395.576 259.402C397.136 258.123 397.512 257.408 398.969 253.26C398.255 252.676 397.55 252.074 396.92 251.557C397.616 249.619 400.604 249.384 400.717 247.333C400.717 247.268 401.187 247.249 401.384 247.145C401.873 246.882 402.522 246.637 402.757 246.252C403.593 244.878 404.26 243.448 405.04 242.047C405.294 241.605 405.623 241.078 406.093 240.833C407.399 240.184 407.888 239.14 408.301 238.067C408.659 237.183 408.865 236.271 409.223 235.396C409.702 234.229 410.059 232.978 410.82 231.953C412.446 229.742 414.053 227.466 416.14 225.575C418.715 223.242 420.397 220.467 422.653 217.993C424.241 216.262 425.773 214.522 427.559 212.913C430.829 209.969 433.395 206.658 434.194 202.669C434.57 200.759 434.748 198.831 435.153 196.912C435.951 193.102 436.017 189.208 438.028 185.558C438.235 185.191 438.226 184.758 438.376 184.363C439.495 181.644 439.485 178.775 440.594 176.028C441.393 174.034 442.182 171.899 441.788 169.726C441.666 169.058 441.6 168.371 441.525 167.769C442.605 167.111 443.573 166.631 444.4 166.01C445.34 165.323 445.237 164.618 444.259 163.724C444.109 163.583 443.968 163.432 443.808 163.282C443.893 163.084 443.94 162.887 444.053 162.718C445.547 160.394 446.525 158.014 446.008 155.361C445.867 154.599 446.008 153.687 446.393 152.981C447.878 150.244 447.981 147.441 447.859 144.59M442.286 149.463C442.211 149.407 442.135 149.35 442.051 149.303C442.107 149.143 442.164 148.993 442.211 148.852C442.295 148.899 442.427 148.955 442.427 149.002C442.408 149.162 442.333 149.313 442.276 149.463" fill="#221D20"/>
</svg>
