<svg width="448" height="449" viewBox="0 0 448 449" fill="none" xmlns="http://www.w3.org/2000/svg">
<path d="M444.301 382.791C444.066 377.674 443.023 372.791 442.553 367.74C442.327 365.294 441.274 363.573 440.024 361.926C440.156 360.713 440.166 359.415 440.448 358.277C441.049 355.897 441.124 353.771 439.855 351.795C439.592 351.391 439.555 350.619 439.461 349.998C439.226 348.296 438.699 346.819 438.07 345.37C437.619 344.326 436.651 343.517 436.82 342.2C437.036 340.431 436.312 338.889 436.575 337.195C436.669 336.575 436.735 335.926 436.716 335.286C436.641 333.207 435.241 331.655 435.805 329.256C436.303 327.186 435.964 325.07 435.607 322.972C435.476 322.201 435.495 321.185 435.73 320.489C436.331 318.607 435.833 316.933 435.081 315.795C434.367 314.685 433.775 313.8 433.728 312.135C433.699 310.875 433.474 309.614 433.258 308.382C432.713 305.249 432.346 302.136 433.342 299.031C433.465 298.664 433.465 298.204 433.53 297.79C433.784 296.078 433.822 294.422 433.126 292.879C432.6 291.741 432.506 290.452 432.966 289.257C433.812 287.075 433.417 284.714 433.436 282.437C433.436 281.657 433.107 280.819 432.835 280.104C432.346 278.816 431.726 277.649 431.275 276.342C430.889 275.203 430.636 273.915 431.613 273.002C431.735 272.899 431.81 272.701 431.886 272.523C432.271 271.554 431.933 270.096 431.294 269.936C429.48 269.465 427.666 269.221 425.843 269.653C425.702 269.682 425.579 269.776 425.429 269.813C423.728 270.406 422.083 270.208 420.467 269.202C419.414 268.543 418.343 268.233 417.187 268.741C416.331 269.127 415.542 268.619 414.762 268.054C412.234 266.22 409.668 264.47 407.14 262.626C406.237 261.968 405.326 261.601 404.33 261.441C402.102 261.084 399.884 260.933 397.648 261.338C396.839 261.488 396.078 262.551 395.223 261.789C394.631 261.253 394.067 260.67 393.474 260.087C392.798 260.651 392.215 261.215 391.586 261.686C391.228 261.949 390.693 262.382 390.429 262.175C389.443 261.385 388.954 262.993 388.287 263.031C387.234 263.087 386.586 264.574 385.533 264.338C384.471 264.113 384.029 264.799 384.086 266.511C384.123 267.565 383.183 268.468 382.582 267.932C380.815 266.342 379.48 267.593 377.986 268.938C377.074 269.757 377.309 271.158 376.792 272.109C376.576 272.513 375.815 272.56 375.693 272.052C375.505 271.281 375.43 270.453 375.27 269.663C375.251 269.55 375.063 269.446 374.95 269.446C374.856 269.446 374.706 269.522 374.64 269.625C374.546 269.785 374.49 270.011 374.48 270.218C374.471 270.933 374.236 271.507 373.813 271.601C371.981 272.015 370.157 272.071 368.588 270.171C368.155 270.594 367.826 270.97 367.469 271.271C366.567 271.996 365.646 272.381 364.659 271.601C363.644 270.792 362.573 270.575 361.417 270.575C359.876 270.585 358.325 270.312 356.793 269.983C355.374 269.7 354.368 270.472 353.56 272.334C351.248 271.45 348.917 270.923 346.502 271.318C345.543 271.469 344.528 271.215 343.588 270.839C342.62 270.453 341.661 270.246 340.684 270.152C339.03 270.001 339.021 269.973 338.081 272.899C337.818 273.689 337.489 274.479 336.915 274.639C335.515 275.025 334.406 276.633 332.94 276.624C332.085 277.583 331.173 277.979 330.224 277.047C327.761 274.639 325.073 275.514 322.423 275.73C319.453 277.311 316.596 276.539 313.777 274.846C313.401 274.63 312.903 274.338 312.583 274.536C311.286 275.316 310.083 274.31 308.833 274.31C307.555 274.3 306.784 273.115 306.023 271.826C305.422 270.82 305.074 269.71 305.563 268.365C305.92 267.367 305.995 266.342 305.703 265.298C304.952 262.749 305.281 259.804 304.388 257.302C304.2 256.794 304.237 256.041 304.284 255.43C304.397 253.718 304.482 252.044 304.002 250.397C303.899 250.04 303.88 249.513 303.974 249.165C304.989 245.336 304.416 241.113 305.346 237.265C305.534 236.503 305.45 235.591 305.45 234.744C305.45 231.329 305.374 227.933 305.403 224.528C305.412 222.835 305.591 221.142 305.685 219.448C305.76 218.178 306.004 216.861 305.873 215.657C305.544 212.732 306.061 210.173 307.029 207.737C307.329 207.003 307.583 206.25 307.931 205.3C308.373 205.112 308.899 204.915 309.416 204.642C309.67 204.501 310.055 204.275 310.092 203.993C310.327 202.488 310.844 201.218 311.455 200.061C312.057 198.941 312.771 197.944 313.532 196.749C313.128 196.382 312.827 196.044 312.489 195.79C311.972 195.404 311.502 194.971 311.314 194.087C311.267 193.89 311.249 193.664 311.183 193.485C310.243 190.917 309.04 188.471 309.444 185.254C309.04 182.554 308.683 179.807 307.536 177.54C306.972 176.421 306.775 175.283 307.141 173.994C307.527 172.62 307.292 171.435 306.54 170.607C305.525 169.469 305.187 168.02 305.252 166.167C305.346 163.627 305.046 161.069 305.619 158.557C305.835 157.607 305.882 156.337 305.638 155.434C305.149 153.609 306.061 152.104 305.948 150.505C305.844 149.084 305.281 147.767 305.017 146.356C304.923 145.801 304.999 145.002 305.205 144.503C305.92 142.678 306.718 140.919 307.517 139.179C307.658 138.859 307.94 138.567 308.194 138.473C309.491 137.956 310.158 136.131 311.295 135.143C311.465 134.155 311.634 133.13 311.812 132.105C311.963 131.201 311.794 130.402 311.39 129.762C310.91 128.991 310.393 128.266 309.848 127.589C309.416 127.053 308.936 126.62 308.523 126.169C308.1 124.504 307.395 122.98 307.583 121.239C307.79 119.33 307.273 117.928 306.596 116.536C306.267 115.849 306.004 115.05 305.628 114.448C304.688 113.018 304.453 111.174 303.974 109.396C302.912 105.379 302.283 101.428 302.518 97.0165C302.677 94.1097 302.029 91.1466 301.935 88.1552C301.888 86.5372 301.239 84.9567 300.807 83.3858C300.713 83.0377 300.459 82.6897 300.224 82.511C297.019 80.2345 295.713 75.7285 294.378 71.2507C294.247 68.2969 293.119 66.1428 291.897 64.0639C291.709 63.7441 291.55 63.3866 291.418 63.0009C291.146 62.2201 291.023 61.4111 291.39 60.6115C291.85 59.652 291.822 58.6078 291.606 57.5636C290.685 53.1518 288.617 50.4707 285.798 49.0409C284.745 48.5047 283.646 48.0814 282.546 47.7898C281.54 47.517 280.76 46.7739 279.914 45.9555C278.514 44.6009 276.973 43.5472 275.431 42.5783C274.445 41.9574 273.73 41.0168 273.364 39.5963C272.875 37.6867 272.076 36.3509 270.873 35.4761C270.488 35.2127 270.14 34.8363 269.802 34.4506C268.345 32.7668 267.621 29.973 265.986 28.562C264.351 27.1415 228.863 20.914 227.829 18.5999C227.227 17.2453 226.316 16.6809 225.31 16.6056C223.195 16.4645 221.128 15.9659 219.06 15.2886C218.205 15.0158 217.472 14.6678 216.833 13.6989C215.996 12.429 214.681 12.9746 213.713 11.9775C213.299 11.5447 212.641 11.5541 212.096 11.5258C209.182 11.3847 189.756 7.5844 186.814 7.38685C186.26 7.34922 185.696 7.14227 185.17 6.9165C183.553 6.20157 181.984 5.34555 180.245 5.2797C179.446 5.25148 178.657 4.51765 177.858 4.13196C176.786 3.60517 175.696 3.27601 174.54 3.63348C172.595 4.24493 160.283 3.97204 158.319 3.89679C156.571 3.82153 155.011 3.40766 153.62 1.58271C153.027 0.811333 152.116 0.44442 151.308 0.246873C149.794 -0.119999 135.49 2.90909 134.071 1.705C133.761 1.45101 133.244 1.62972 132.849 1.79905C130.688 2.70212 128.394 2.60804 126.289 3.9062C126.167 3.98146 126.017 3.9062 125.876 3.9062C124.973 3.96264 124.316 4.60239 123.723 5.62775C123.075 6.73778 122.314 7.69719 121.59 8.70374C121.252 9.17409 120.857 9.01426 120.18 8.21467C119.964 7.97009 119.72 7.75362 119.504 7.51845C115.913 8.25219 115.265 8.25223 111.553 7.67841C110.857 7.57493 110.209 7.49025 109.57 6.95405C108.949 6.41786 108.216 6.35204 107.568 6.99172C107.173 7.39622 106.806 7.27395 106.412 7.01055C105.754 6.55902 105.087 6.34269 104.372 6.69075C103.978 6.88829 103.526 7.20806 103.15 7.08576C99.955 6.0604 96.7314 6.70012 93.5171 6.5402C93.1036 6.52139 92.6526 6.38961 92.3048 6.1074C90.9985 5.03501 89.8425 6.01344 88.6489 6.56845C86.0173 10.0773 82.4083 10.2654 79.4479 12.6547C79.2035 12.8523 78.884 12.9652 78.6302 12.8993C75.8859 12.0903 73.4894 14.8277 70.8014 14.6113C68.8184 15.7778 66.9574 17.283 65.6793 19.9357C64.9744 21.3938 64.0534 22.2781 63.0384 23.0118C62.5497 23.3599 61.9011 23.7549 61.4406 23.5574C60.153 22.9648 59.2884 23.9524 58.3673 24.9308C57.3429 26.0126 56.2621 26.991 55.2189 28.054C54.8806 28.4114 54.4201 28.8159 54.3073 29.3333C53.8844 31.2617 52.4746 31.845 51.9013 33.6135C51.4877 34.8835 50.5292 35.7395 50.1063 37C49.627 38.4299 48.6777 39.0601 48.1326 40.2265C47.3526 41.9668 46.7416 43.773 45.6232 45.2311C44.721 46.4258 44.2229 48.3354 43.5462 49.9252C41.9767 50.3767 40.473 50.8189 39.0632 51.2328C37.6441 55.8046 37.6817 55.861 35.5294 59.2004C34.1855 61.2982 32.8697 63.4336 31.4506 65.409C30.9055 66.1804 30.5953 66.98 30.3792 68.0336C30.2852 68.551 29.8904 69.2565 29.5896 69.3224C28.1047 69.6234 27.4186 72.0504 25.9619 72.342C25.6047 73.8189 24.7308 74.4492 23.9225 75.2206C23.7627 75.3711 23.6499 76.0013 23.7157 76.3305C23.8942 77.3465 24.1668 78.306 24.4488 79.4818C23.7627 80.7988 23.0766 82.1158 22.3718 83.4046C22.0992 83.8843 21.7045 84.2042 21.4319 84.6839C20.7271 85.9915 20.5673 87.873 19.5617 88.8701C18.6218 89.7732 17.6538 90.6198 16.7516 91.5699C16.0655 92.2848 15.4922 93.2443 14.7685 93.8651C14.167 94.3919 14.1106 95.1257 14.0543 95.9723C13.9321 97.515 13.0673 98.3805 12.5504 99.5564C12.3625 99.9797 11.6764 98.7663 11.62 99.9327C11.5542 101.221 12.6632 101.842 12.5504 103.319C12.4658 104.335 12.682 105.398 12.8042 106.442C13.058 108.813 12.964 111.014 12.0899 113.178C11.3662 114.956 10.9527 117.025 10.3418 118.925C10.1727 119.462 9.89077 120.148 9.57123 120.289C7.25924 121.343 6.21594 124.174 5.61445 127.204C4.25169 133.939 2.33444 140.307 0.45477 146.704C-0.391081 149.554 0.332665 152.941 2.17474 154.23C2.82323 154.681 3.46229 155.039 3.91341 155.895C4.70287 157.4 5.48293 158.896 6.26299 160.391C6.51675 160.899 6.68597 161.595 7.01491 161.906C8.83819 163.552 9.82496 166.543 11.6576 168.284C13.1708 169.714 14.1576 172.282 14.7403 174.916C15.1726 176.882 15.8211 178.227 17.0617 179.168C17.9169 179.826 18.6594 180.889 19.4113 181.849C20.0597 182.676 20.4921 183.73 20.821 184.972C21.8172 188.725 22.5597 192.573 23.0014 196.542C23.1893 198.123 23.6593 199.317 24.4488 200.296C25.2006 201.208 25.9525 202.13 26.6856 203.043C26.5258 204.472 26.4037 205.714 26.2721 206.881C26.7796 209.035 28.3678 209.825 28.8942 211.829C29.4017 213.795 29.7212 215.874 30.1911 217.868C30.5295 219.27 31.0182 220.568 31.3659 221.96C31.5069 222.515 31.5915 223.38 31.413 223.794C30.5953 225.6 31.5164 227.576 31.084 229.41C30.9619 229.899 31.0934 230.718 31.319 231.16C32.5596 233.625 32.5878 236.72 33.2926 239.448C33.443 240.031 33.4148 240.755 33.6121 241.273C34.1666 242.74 34.834 244.123 35.4073 245.581C35.9806 247.039 35.7174 248.949 36.6197 250.266C37.2588 251.197 37.409 252.486 37.3433 253.812C37.2775 254.875 37.1553 255.929 37.1459 256.992C37.1271 257.612 37.1741 258.299 37.3338 258.854C37.9729 261.187 38.4429 263.708 39.8526 265.364C40.5575 266.182 40.8301 267.377 41.1496 268.562C41.5068 269.907 41.7888 271.422 42.3809 272.485C42.8884 273.397 43.7999 273.774 44.533 274.413C44.6364 274.498 44.674 274.743 44.8056 275.109C44.4579 276.342 44.0725 277.696 43.6214 279.249C44.956 282.541 45.6609 286.473 47.3056 289.671C47.6627 292.202 48.4991 294.403 49.4483 296.51C49.6927 297.028 49.8995 297.724 50.2379 297.959C51.7134 299.003 52.5968 300.856 53.5273 302.757C53.8938 303.528 54.6644 304.045 55.3223 304.271C56.4783 304.685 57.4557 305.296 58.0572 306.914C60.0873 308.796 61.8542 311.307 64.1004 312.69C65.0308 313.255 65.7733 314.186 66.3184 315.512C67.3804 318.08 68.9499 319.905 70.4912 321.759C71.2713 322.709 71.9667 323.725 72.3521 325.155C72.8314 326.979 73.7149 328.362 74.6171 329.698C74.9178 330.14 75.1717 330.893 75.51 331.006C77.8502 331.768 78.8933 334.778 80.0963 337.28C81.2711 339.773 82.7467 341.607 84.3726 343.225C85.0775 343.931 85.7917 344.476 86.2617 345.624C86.6282 346.518 87.0793 347.336 87.5304 348.136C88.7021 350.199 90.2246 351.698 92.098 352.632C92.6243 354.109 93.2071 355.812 93.8274 357.439C94.0999 358.164 94.4194 359.001 94.8612 359.387C96.1957 360.553 96.7409 362.397 97.1262 364.476C97.1544 364.626 97.3611 364.702 97.4739 364.814L97.3893 365.002C97.7213 364.444 98.0597 364.438 98.4044 364.984L98.3103 364.814C99.0152 366.131 99.7483 367.42 100.416 368.784C100.904 369.791 101.167 371.126 101.769 371.926C102.361 372.735 103.254 373.045 104.006 373.61C104.626 374.08 105.256 374.569 105.867 375.096C107.408 376.47 109.316 376.488 110.679 378.699C111.9 380.703 113.724 381.728 114.945 383.873C115.688 385.19 116.759 385.914 117.831 386.432C119.701 387.344 121.571 388.247 123.347 389.498C124.936 389.404 125.349 390.9 125.866 392.922C126.505 395.5 127.793 397.306 129.729 398.331C131.956 399.517 134.005 401.492 136.439 401.925C136.815 401.991 137.125 402.593 137.501 402.875C138.112 403.336 138.742 403.882 139.409 404.117C141.176 404.738 142.981 405.189 144.766 405.706C145.33 405.866 145.791 405.349 145.941 404.38C146.063 403.552 146.129 402.715 146.289 401.915C146.458 401.078 147.163 400.486 147.623 400.947C149.099 402.414 150.988 401.313 152.426 402.828C153.892 402.376 155.151 403.439 156.505 403.9C157.463 404.23 158.431 404.418 159.399 404.691C161.195 405.199 162.99 405.772 164.343 407.785C166.016 410.25 168.281 411.012 170.245 412.611C170.584 412.884 171.129 413.044 171.458 412.828C172.454 412.207 173.347 412.461 174.315 412.959C175.414 413.524 176.42 413.289 177.407 412.066C178.008 411.322 178.901 411.097 179.785 411.821C180.527 412.442 181.363 412.639 182.2 411.924C182.435 411.727 182.764 411.595 182.999 411.708C185.123 412.809 187.454 412.696 189.493 414.267C190.047 414.69 190.602 414.671 191.128 414.389C192.585 413.58 193.553 414.605 194.38 416.261C194.728 416.967 195.329 417.813 195.743 417.428C197.096 416.158 198.468 418.246 199.822 417.127C200.47 416.581 201.213 417.381 201.777 417.889C202.528 418.556 203.243 418.905 204.136 418.905C205.386 418.895 206.664 419.676 207.876 419.45C209.624 419.14 211.212 419.77 212.82 420.447C213.656 420.795 214.408 421.049 215.282 420.729C215.79 420.541 216.4 420.824 216.917 421.115C218.421 421.962 219.897 422.253 221.41 421.237C221.955 420.871 222.491 421.115 223.026 421.491C224.878 422.808 226.786 423.156 228.75 422.159C229.314 421.877 229.831 421.999 230.385 422.253C231.457 422.761 232.547 423.203 233.618 423.664C234.182 423.918 234.69 423.749 235.244 423.429C235.582 423.222 236.062 423.363 236.428 423.533C237.368 423.994 238.346 424.351 239.163 425.122C240.056 425.95 240.789 424.991 241.475 425.094C242.763 426.27 243.956 427.361 245.047 428.368C245.46 428.114 245.751 428.039 245.958 427.785C246.409 427.258 246.814 426.693 247.453 426.9C247.998 427.089 248.562 427.22 249.088 427.465C249.943 427.86 250.751 427.775 251.522 427.098C253.12 425.668 254.802 425.734 256.325 427.042C258.59 428.97 260.836 429.036 263.185 427.757C264.191 427.202 265.121 427.211 265.93 428.349C266.682 429.393 267.433 430.325 268.542 429.628C270.046 430.042 271.587 429.93 273.025 431.058C273.646 431.548 274.285 431.877 274.727 432.733C275.666 434.567 276.869 435.226 278.411 435.16C280.225 435.085 282.048 435.414 283.862 435.527C284.444 435.564 284.924 435.931 285.403 436.373C286.521 437.342 287.724 437.831 289.04 437.512C289.764 437.323 290.45 437.634 291.023 438.292C291.578 438.932 292.095 439.628 292.63 440.296C294.501 440.061 296.117 441.782 297.969 441.82C299.632 441.839 301.286 442.13 303.1 442.318C303.542 441.481 304.059 440.484 304.66 439.355C305.403 439.355 306.286 439.628 307.038 439.299C309.35 438.283 311.493 439.017 313.617 440.296C313.871 440.456 314.143 440.616 314.369 440.86C315.121 441.641 315.609 441.086 316.173 440.268C316.869 439.261 317.48 439.261 318.025 439.92C318.241 440.183 318.476 440.428 318.645 440.757C319.387 442.13 320.346 442.902 321.474 443.344C322.94 443.927 324.491 444.294 325.675 445.978C325.797 446.138 326.173 445.912 326.417 445.865C327.761 445.63 330.205 445.761 330.919 446.232C331.295 446.486 331.652 447.37 331.925 447.285C333.391 446.853 334.679 448.207 336.088 448.123C336.643 448.094 337.207 447.972 337.742 447.765C337.949 447.68 338.175 447.229 338.231 446.9C338.372 445.987 338.72 445.376 339.284 445.084C341.145 444.115 342.949 442.949 344.97 442.873C345.487 442.855 346.173 442.572 346.492 442.036C347.648 440.051 349.265 440.174 350.731 439.59C351.107 439.44 351.567 439.656 351.971 439.807C352.62 440.061 353.259 440.418 353.917 440.738C354.575 439.383 355.148 438.208 355.731 436.975C356.398 436.787 357.15 436.768 357.77 436.354C359.208 435.404 360.712 435.094 362.244 434.878C363.202 434.736 364.124 434.435 364.847 433.118C365.505 431.914 366.624 432.319 367.563 432.197C367.667 432.375 367.77 432.507 367.836 432.695C367.968 433.053 367.996 433.589 368.184 433.758C368.419 433.975 368.522 433.579 368.484 432.996C368.362 431.406 368.428 429.976 369.838 429.779C370.242 429.722 370.627 429.356 371.013 429.083C371.576 428.678 372.112 428.895 372.601 429.346C373.268 429.958 373.926 430.118 374.575 429.469C374.969 429.073 375.373 429.064 375.768 429.243C377.563 430.042 379.086 429.083 380.496 427.549C380.824 427.192 381.153 426.693 381.304 426.148C381.727 424.586 382.056 422.968 382.413 421.454C384.96 418.999 387.789 418.669 390.514 417.766C390.871 417.644 391.294 418.152 391.698 418.274C392.093 418.406 392.619 418.679 392.901 418.425C394.461 417.033 396.153 417.409 397.817 417.362C398.371 417.362 398.944 417.324 399.508 417.287C400.345 417.23 400.711 416.741 400.909 415.377C400.965 414.963 400.852 414.483 400.965 414.126C401.144 413.58 401.463 412.696 401.679 412.724C402.939 412.865 403.954 411.163 405.26 411.783C406.736 412.479 408.23 413.044 409.771 412.019C410.006 411.868 410.335 411.924 410.608 412.047C412.262 412.809 413.916 412.084 415.579 411.953C416.322 411.896 416.989 411.482 417.384 410.551C417.854 409.441 418.437 408.698 419.207 408.049C419.734 407.616 419.978 406.384 420.401 405.358C421.096 405.114 421.923 404.484 422.666 404.643C423.681 404.86 424.527 403.703 425.504 404.211C426.35 404.644 426.763 403.834 427.13 402.847C427.44 402.028 428.032 401.784 428.587 401.85C429.48 401.972 430.307 401.643 430.983 400.9C432.506 399.225 434.385 399.027 436.03 397.908C436.359 397.682 436.829 397.776 437.224 397.861C437.797 397.965 438.295 397.908 438.821 397.457C440.541 395.989 442.355 394.898 444.357 394.55C445.476 394.352 446.509 393.609 447.478 392.687C447.797 392.377 447.872 391.333 447.524 391.069C445.259 389.348 444.432 386.244 444.273 382.735" fill="#221D20"/>
</svg>
