<svg width="448" height="446" viewBox="0 0 448 446" fill="none" xmlns="http://www.w3.org/2000/svg">
<path d="M447.338 1.34338C445.618 1.65381 443.861 1.76674 442.038 0.920108C440.891 0.383911 439.65 1.23997 438.908 2.23711C438.071 3.34713 438.015 5.04041 436.107 5.32262L436.351 5.49189C436.201 6.89353 436.539 8.43632 435.036 9.42405C434.068 10.0637 432.545 10.0448 432.113 11.6911C432.113 13.4219 432.197 15.4444 432.085 17.4481C431.962 19.6776 430.684 21.1921 428.363 21.9541C426.887 22.4433 425.44 23.0359 423.964 23.5063C422.545 23.9484 420.807 23.1112 419.604 24.4187C419.604 26.6262 418.479 29.1347 416.229 31.9443C417.132 34.6347 417.376 37.5603 419.613 39.8179C419.904 40.1001 419.792 41.0408 419.472 41.4359C417.997 43.3455 416.229 44.8225 413.41 44.0605C413.382 44.6155 413.335 45.1894 413.326 45.7632C413.307 47.1648 413.871 48.6417 412.517 49.8458C410.816 51.3509 408.965 52.2163 406.512 51.699C405.957 51.5673 405.309 51.8025 404.604 51.8872C402.687 55.4712 400.835 59.1305 398.749 62.6769C398.025 63.8998 396.869 65.2544 395.563 65.7812C392.433 67.0323 390.647 69.3465 389.021 71.8111C388.204 73.0528 387.668 74.4356 386.38 75.3575C383.927 77.126 380.948 78.4995 380.6 81.8672C380.582 82.1118 380.271 82.4692 380.018 82.5162C376.061 83.3911 374.632 86.0439 373.946 89.4022C373.796 90.0983 372.744 90.7473 371.973 91.2083C370.272 92.243 369.398 93.7481 368.815 95.432C368.336 96.796 367.96 98.1788 367.471 99.7592C365.61 100.277 363.768 100.653 362.039 101.293C360.281 101.942 358.674 102.92 356.936 103.597C355.789 104.049 354.511 104.218 353.298 104.529C350.563 105.225 347.763 105.789 345.112 106.692C343.684 107.181 342.142 108.028 341.25 109.119C338.956 111.969 335.686 113.766 332.791 116.118C332.866 116.936 333.101 117.811 332.979 118.639C332.331 122.806 330.413 126.381 326.485 128.695C325.15 129.485 323.637 130.021 322.81 131.31C321.447 133.408 319.906 134.8 316.908 134.998C314.389 135.148 312.322 136.898 310.62 138.657C308.346 140.999 305.884 143.248 304.54 145.966C304.54 147.067 304.493 147.932 304.54 148.798C304.765 152.41 303.713 155.524 301.325 158.543C299.042 161.431 296.542 163.84 293.205 165.693C291.683 166.539 289.484 166.84 288.929 168.825C288.957 169.117 288.892 169.437 289.023 169.672C290.151 171.582 290.546 173.454 288.938 175.344C285.433 179.446 282.848 184.168 278.845 187.95C277.585 189.144 277.153 191.092 275.856 192.211C270.471 196.783 266.495 200.837 262.595 206.378C261.016 208.617 259.296 210.545 256.11 211.072C253.065 211.58 251.035 214.506 247.539 214.355C246.975 214.336 246.026 215.456 245.828 216.18C245.368 217.948 244.607 219.388 243.009 220.545C239.776 222.887 236.524 225.126 232.962 227.083C227.821 229.886 222.849 232.943 219.005 237.346C217.276 239.331 214.861 240.807 212.755 242.51C211.975 244.335 213.451 245.868 213.526 247.571C213.573 248.709 213.564 249.857 213.376 250.986C213.197 252.124 211.788 253.215 210.754 253.121C206.656 252.745 202.558 252.322 198.461 251.945C197.098 251.814 195.378 252.999 194.936 254.419C194.682 255.238 194.466 256.141 194.579 256.969C194.739 258.107 195.34 259.189 195.528 260.336C195.726 261.55 195.265 262.66 194.015 263.271C191.788 264.353 189.551 265.444 187.23 266.357C184.617 267.382 181.91 268.21 178.959 269.216C178.884 270.863 179.232 272.688 178.64 274.193C177.869 276.121 177.108 277.909 177.408 280.044C177.502 280.768 176.976 281.784 176.384 282.349C173.066 285.528 170.106 288.877 168.677 293.185C166.939 294.587 165.933 295.932 166.976 298.35C168.019 300.768 166.892 302.809 164.044 303.919C162.973 304.342 162.991 305.048 163.762 306.045C166.384 309.46 166.441 309.572 163.283 312.141C163.593 316.646 160.698 319.76 157.606 322.667C155.463 324.689 151.939 325.273 150.67 328.33C150.426 328.941 149.166 329.318 148.302 329.609C146.779 330.108 145.482 330.757 144.524 332.055C143.095 333.965 141.15 335.507 140.52 337.916C140.135 339.402 138.96 340.474 137.306 340.86C132.249 342.036 129.383 345.338 127.212 349.392C125.84 351.97 124.608 354.688 121.122 355.657C120.464 355.845 119.966 356.965 119.693 357.746C117.776 362.863 114.985 367.228 109.176 369.448C106.404 370.511 104.524 372.477 103.895 375.252C103.152 378.544 99.5244 380.172 98.4906 383.333C98.1522 384.358 97.0149 385.186 96.2066 386.07C93.5375 389.024 90.408 391.479 86.4795 392.871C84.5152 393.586 83.4437 394.894 82.5978 396.483C82.0715 397.499 81.6298 398.562 81.2069 399.456C78.1712 400.359 75.4176 401.046 72.7766 401.987C69.7786 403.068 66.696 403.558 63.5194 403.764C62.6078 403.84 61.5081 404.084 60.8878 404.621C56.621 408.28 51.4799 410.453 46.1605 412.381C45.5966 412.598 45.1643 413.096 44.6192 413.397C43.1061 414.263 42.8054 415.457 42.796 417.066C42.7772 419.728 41.499 420.697 38.7547 420.791C35.9164 420.904 33.0686 420.989 30.2397 421.224C29.2999 421.299 28.52 421.958 28.2756 422.898C28.144 423.463 28.1816 424.055 28.0219 424.61C27.6459 425.965 26.6213 426.84 25.5123 426.746C23.3037 426.567 21.1045 426.313 18.8865 426.172C17.9466 426.125 16.9034 426.097 16.067 426.426C12.8621 427.621 9.30037 428.477 6.65004 430.377C3.16325 432.889 0.522329 436.35 1.02044 440.866C1.19901 442.474 1.39635 444.026 1.22718 445.597H447.385V1.33396L447.338 1.34338Z" fill="#221D20"/>
</svg>
