<svg width="20" height="21" viewBox="0 0 20 21" fill="none" xmlns="http://www.w3.org/2000/svg">
<path d="M20.0044 0.946236C19.9587 0.916016 19.913 0.880895 19.8726 0.928675C19.8094 0.889743 19.7539 0.880215 19.706 0.900089C19.6901 0.906215 19.675 0.916424 19.6587 0.921733C19.5758 0.947461 19.4926 0.982581 19.406 0.956853C19.3513 0.940518 19.3052 0.950728 19.2599 0.981356C19.206 1.0177 19.1505 1.02342 19.0869 1.01198C18.9901 0.993607 18.891 0.989115 18.793 0.977681C18.7677 0.974822 18.7412 0.971963 18.7175 0.962162C18.615 0.917649 18.5085 0.908257 18.4008 0.924183C18.3604 0.9299 18.3244 0.923775 18.2869 0.911115C18.2465 0.897639 18.2036 0.872319 18.1644 0.877628C18.1118 0.884162 18.0955 0.864969 18.0306 0.873544C17.9151 0.889063 18.0065 0.903764 17.8828 0.882937C17.8102 0.871094 17.7538 0.851901 17.6812 0.874361C17.5877 0.902948 17.4898 0.933168 17.3906 0.885796C17.373 0.87722 17.2812 0.853534 17.2616 0.860068C17.1861 0.886613 17.1085 0.878853 17.0314 0.88212C16.9502 0.885796 16.8681 0.882529 16.789 0.911932C16.7624 0.922141 16.7294 0.921325 16.7004 0.916016C16.6118 0.898864 16.5233 0.880079 16.4363 0.854759C16.3829 0.839241 16.3147 0.926633 16.2641 0.901722C16.2176 0.878853 16.1731 0.849042 16.1257 0.828215C16.0653 0.802079 16.0388 0.933984 15.9955 0.876811C15.9808 0.857209 15.9204 0.89233 15.8972 0.880895C15.8694 0.867827 15.8396 0.861293 15.8131 0.846183C15.7327 0.800037 15.6514 0.792277 15.5649 0.828215C15.4914 0.859251 15.4115 0.863743 15.3359 0.847C15.1478 0.805754 14.9682 0.847408 14.7911 0.906623C14.7315 0.927042 14.6751 0.932351 14.6143 0.918874C14.5682 0.908665 14.516 0.893147 14.4747 0.90744C14.3364 0.956037 14.1911 0.906623 14.0535 0.951953C13.9511 0.933168 13.8564 0.958487 13.7654 1.00259C13.809 1.10469 13.8348 1.21127 13.8168 1.32684C13.8584 1.4759 13.8127 1.63353 13.8576 1.78382C13.8707 1.82833 13.8972 2.34248 13.8878 2.3923C13.876 2.45846 13.8809 2.5193 13.8992 2.58424C13.9539 2.77658 13.9923 2.97097 13.9543 3.17557C13.9388 3.25765 13.9433 3.34422 13.9715 3.42427C14.0045 3.5186 14.0258 3.57414 13.9833 3.66235C13.9694 3.69094 14.007 3.80324 13.9948 3.83305C13.9841 3.85837 13.996 3.91881 13.978 3.93515C13.925 3.9817 14.0209 3.98374 13.9972 4.04949C13.978 4.10095 14.0209 4.21366 14.0005 4.2643C13.9772 4.31943 14.0168 4.40151 14.0025 4.45909C13.9788 4.55384 13.9617 4.64981 13.9454 4.74618C13.9401 4.77722 13.9401 4.81275 13.9494 4.84215C13.9768 4.92832 13.9482 4.94792 13.9519 5.03613C13.9552 5.11985 13.9299 5.17784 13.9539 5.25992C13.9605 5.28075 13.9629 5.30852 13.9556 5.32771C13.9127 5.43552 13.9401 5.54211 13.9666 5.64298C13.9874 5.7218 13.9964 5.79816 13.9858 5.87698C13.9674 6.01093 13.9927 6.02359 14.0127 6.14447C14.0213 6.19347 14.0233 6.23798 14.029 6.29516C14.0335 6.33804 14.0107 6.38418 13.998 6.4287C13.9866 6.46913 13.9809 6.50792 13.9866 6.55162C14.0009 6.66882 13.9927 6.78398 13.9515 6.89547C13.9417 6.92079 13.9397 6.94979 13.9368 6.97715C13.9266 7.08332 14.016 7.17439 13.9997 7.27935C13.9886 7.34836 13.9646 7.40145 13.998 7.45903C14.0262 7.50885 14.036 7.55827 14.0209 7.6183C13.9972 7.71263 13.9568 7.7596 13.9805 7.84944C13.985 7.867 13.9939 7.88333 14.0005 7.9009C14.0135 7.93969 14.025 7.96787 14.0266 8.00013C13.989 8.00299 13.9519 8.00626 13.9143 8.00789C13.8948 8.00871 13.8723 8.00013 13.856 7.98829C13.8139 7.95562 13.7748 7.96174 13.7376 7.99441C13.6646 8.05894 13.5756 7.94337 13.5078 8.01442C13.4335 8.09161 13.3401 7.89844 13.2662 7.98584C13.1715 7.92785 13.1715 7.92744 13.0997 7.95725C13.0833 7.96338 13.0682 7.97359 13.0519 7.9789C12.9699 8.00462 12.8862 8.03974 12.7997 8.01402C12.7442 7.99768 12.6989 8.00789 12.6532 8.03852C12.5997 8.07486 12.5438 8.08058 12.4805 8.06915C12.3834 8.05118 12.2846 8.04628 12.187 8.03525C12.1613 8.03198 12.1348 8.02953 12.1115 8.01932C12.0087 7.97481 11.9026 7.96542 11.7944 7.98135C11.7548 7.98747 11.7181 7.98135 11.6809 7.96869C11.6401 7.9548 11.5973 7.92989 11.5581 7.93479C11.5054 7.94173 11.4891 7.92254 11.4238 7.93111C11.3091 7.94663 11.4001 7.96052 11.276 7.9401C11.2034 7.92866 11.1475 7.90906 11.0748 7.93152C10.9814 7.96052 10.8834 7.99033 10.7842 7.94296C10.7667 7.93479 10.6744 7.9107 10.6552 7.91723C10.5793 7.94377 10.5022 7.93602 10.425 7.93928C10.3434 7.94296 10.2618 7.9401 10.1826 7.96909C10.1557 7.9793 10.1222 7.9793 10.094 7.97359C10.0051 7.95603 9.9169 7.93724 9.82956 7.91192C9.7765 7.8964 9.70793 7.9838 9.65732 7.95888C9.61079 7.93602 9.5667 7.9062 9.51936 7.88538C9.45895 7.85965 9.43283 7.99155 9.38916 7.93397C9.37446 7.91437 9.31365 7.94949 9.29079 7.93847C9.26386 7.9254 9.23365 7.91805 9.20712 7.90335C9.12631 7.8572 9.0455 7.84985 8.95897 7.88579C8.88509 7.91641 8.8055 7.92131 8.72958 7.90457C8.54143 7.86292 8.36225 7.90457 8.18511 7.96378C8.1247 7.9842 8.06919 7.98951 8.00797 7.97685C7.96226 7.96705 7.91001 7.95072 7.86879 7.96542C7.73002 8.01361 7.58472 7.96419 7.44758 8.00952C7.34472 7.99074 7.25044 8.01606 7.15901 8.06016C7.20269 8.16266 7.22922 8.26884 7.21085 8.38441C7.25207 8.53347 7.20636 8.6911 7.25126 8.84139C7.26472 8.88672 7.29085 9.40005 7.28146 9.45028C7.26962 9.51603 7.27493 9.57687 7.2933 9.64221C7.34799 9.83415 7.38635 10.0289 7.34799 10.2335C7.33289 10.3156 7.33738 10.4022 7.36554 10.4822C7.3986 10.5762 7.41982 10.6325 7.37697 10.7203C7.36309 10.7485 7.40064 10.8608 7.3884 10.8906C7.3786 10.9159 7.39003 10.9764 7.37207 10.9923C7.31901 11.0393 7.41533 11.0409 7.39084 11.1062C7.37207 11.1577 7.41533 11.2712 7.39411 11.3219C7.37125 11.3766 7.41044 11.4587 7.39615 11.5167C7.37289 11.611 7.35534 11.707 7.33942 11.8033C7.33411 11.8344 7.3337 11.8703 7.3435 11.8997C7.37003 11.9855 7.34228 12.0051 7.34513 12.0937C7.3484 12.177 7.3235 12.2354 7.34758 12.3171C7.3537 12.3383 7.35697 12.3661 7.34921 12.3849C7.30595 12.4927 7.33329 12.5993 7.35983 12.7005C7.38064 12.779 7.39003 12.8553 7.37942 12.9345C7.36064 13.0685 7.38595 13.0812 7.40635 13.2016C7.41452 13.251 7.41615 13.2956 7.42268 13.3523C7.42676 13.3952 7.40431 13.4418 7.39166 13.4859C7.37982 13.5263 7.37411 13.5651 7.37982 13.6092C7.39452 13.726 7.38595 13.8416 7.34472 13.953C7.33574 13.9788 7.33329 14.0074 7.33044 14.0347C7.32023 14.1413 7.40962 14.232 7.39248 14.3369C7.38186 14.4059 7.35778 14.459 7.39084 14.5174C7.41942 14.5668 7.42921 14.6162 7.41411 14.6767C7.39003 14.7706 7.34962 14.818 7.37329 14.9074C7.37819 14.925 7.38717 14.9413 7.39329 14.9589C7.4137 15.0169 7.42921 15.0524 7.4137 15.1092C7.37819 15.112 7.34268 15.1153 7.30758 15.1169C7.28799 15.1177 7.26554 15.1092 7.24921 15.0973C7.20636 15.0646 7.16799 15.0712 7.13126 15.1034C7.05779 15.168 6.96841 15.0528 6.90065 15.1234C6.82637 15.2006 6.73372 15.0075 6.65903 15.0949C6.56434 15.0369 6.56434 15.0365 6.49291 15.0663C6.47699 15.0728 6.46189 15.083 6.44515 15.0879C6.3623 15.1136 6.27944 15.1488 6.19332 15.123C6.13782 15.1067 6.0921 15.1169 6.04639 15.148C5.99251 15.1843 5.937 15.19 5.87374 15.1782C5.77701 15.1602 5.67783 15.1561 5.57987 15.1443C5.55416 15.1414 5.52804 15.1386 5.50436 15.1284C5.40192 15.0838 5.29539 15.0749 5.18764 15.0904C5.14723 15.0965 5.11131 15.0904 5.07417 15.0777C5.03376 15.0642 4.9905 15.0389 4.95172 15.0442C4.89907 15.0508 4.88275 15.0316 4.81744 15.0401C4.70234 15.0557 4.79336 15.0695 4.66969 15.0495C4.59745 15.0377 4.54071 15.0185 4.46847 15.041C4.375 15.0695 4.27705 15.0994 4.17746 15.0524C4.15991 15.0438 4.06807 15.0197 4.04848 15.0263C3.97297 15.0524 3.89543 15.045 3.81869 15.0487C3.73706 15.0524 3.65543 15.0487 3.57584 15.0785C3.54931 15.0883 3.51625 15.0879 3.48727 15.0826C3.3987 15.0651 3.30973 15.0463 3.2232 15.0214C3.16973 15.0058 3.10157 15.0932 3.05096 15.0683C3.00443 15.045 2.96035 15.0152 2.913 14.9948C2.8526 14.9687 2.82606 15.1006 2.78239 15.043C2.7677 15.0234 2.70729 15.0585 2.68403 15.0475C2.65627 15.0344 2.62607 15.0275 2.60036 15.0124C2.51954 14.9666 2.43832 14.9589 2.35179 14.9948C2.27832 15.0258 2.19874 15.0303 2.12282 15.0136C1.93425 14.9723 1.75507 15.0136 1.57793 15.0732C1.51794 15.0936 1.46161 15.0989 1.40121 15.0855C1.35549 15.0757 1.30325 15.0597 1.26162 15.074C1.12325 15.1226 0.977952 15.0728 0.840404 15.1181C0.737958 15.0989 0.643672 15.1251 0.552246 15.1688C0.595918 15.2709 0.621632 15.3771 0.603674 15.4934C0.645305 15.6421 0.599592 15.7997 0.644489 15.9504C0.65755 15.9949 0.68408 16.5087 0.6751 16.5589C0.663264 16.6251 0.667755 16.6859 0.68653 16.7508C0.741222 16.9432 0.779587 17.1376 0.741221 17.3422C0.725711 17.4242 0.730203 17.5108 0.758365 17.5909C0.791426 17.6852 0.812649 17.7411 0.770201 17.8289C0.756323 17.8571 0.793875 17.9698 0.78163 17.9992C0.771426 18.0246 0.782853 18.085 0.764895 18.1009C0.711835 18.1479 0.80816 18.1495 0.784079 18.2149C0.764896 18.2663 0.808158 18.3798 0.787342 18.4305C0.764078 18.4852 0.80367 18.5677 0.789385 18.6253C0.765712 18.7196 0.748569 18.816 0.732243 18.912C0.726937 18.943 0.726936 18.9785 0.736323 19.0083C0.763261 19.0945 0.735099 19.1141 0.738772 19.2023C0.742037 19.286 0.716326 19.344 0.740815 19.4261C0.746937 19.4473 0.749793 19.4751 0.742447 19.4943C0.699182 19.6017 0.726937 19.7083 0.753059 19.8096C0.773875 19.8884 0.783261 19.9648 0.772241 20.0436C0.762445 20.1159 0.765303 20.153 0.773058 20.1902H20.0028V0.946236H20.0044Z" fill="#221D20"/>
</svg>
