<svg width="20" height="19" viewBox="0 0 20 19" fill="none" xmlns="http://www.w3.org/2000/svg">
<path d="M0.736474 0.217773V12.4784C0.743096 12.5073 0.748548 12.5365 0.749716 12.5669C0.750885 12.5961 0.777375 12.6261 0.796462 12.6534C0.829571 12.7002 0.866183 12.7454 0.90046 12.7914C0.940192 12.844 0.993949 12.8912 1.01615 12.95C1.07886 13.1114 1.02472 13.2162 1.16378 13.3152C1.25921 13.383 1.24051 13.5046 1.31024 13.6009C1.35153 13.6582 1.42242 13.6956 1.48241 13.7392C1.51591 13.7638 1.55486 13.7801 1.58874 13.8035C1.70521 13.8842 1.66587 14.1192 1.78623 14.194C1.87387 14.2478 1.95645 14.3055 2.00748 14.3924C2.17342 14.6703 2.38609 14.9139 2.5902 15.1645C2.64707 15.2346 2.68641 15.318 2.73861 15.3917C2.79548 15.4728 2.85508 15.5527 2.92013 15.6271C2.99063 15.7086 3.06815 15.7842 3.1441 15.8602C3.19708 15.9132 3.24849 15.9693 3.30848 16.0133C3.38521 16.0694 3.43897 16.1392 3.48532 16.2199C3.57491 16.3769 3.84017 16.495 3.99286 16.6104C4.03727 16.6435 4.07467 16.6993 4.09258 16.7515C4.13037 16.8594 4.2071 16.9308 4.2928 16.9997C4.35123 17.0469 4.40965 17.096 4.4599 17.1514C4.5417 17.2414 4.64298 17.2936 4.76022 17.3236C5.02354 17.3914 5.00562 17.5224 5.24907 17.6366C5.47694 17.7434 5.70052 17.8712 5.94086 17.9382C6.2587 18.0271 6.5376 18.1409 6.84455 18.2586C6.9466 18.2976 7.05255 18.3287 7.15928 18.3521C7.46116 18.4176 8.08984 18.5509 8.16229 18.5731C8.34731 18.6292 8.85019 18.6132 9.03677 18.6631C9.14973 18.6935 9.27008 18.699 9.3811 18.7345C9.54976 18.7878 10.0998 18.7602 10.2789 18.7528C10.3276 18.7508 10.3755 18.7812 10.4266 18.7785C11.6945 18.7122 12.2472 18.7161 12.7594 18.4726C12.7875 18.4593 12.8264 18.4484 12.8568 18.4324C12.9098 18.4043 12.9604 18.3728 13.0122 18.3428C13.071 18.3085 13.1244 18.2625 13.1906 18.2434C13.3729 18.1896 13.5949 18.0914 13.7071 17.9717C13.7835 17.8895 13.8715 17.8174 13.9806 17.757C14.0448 17.7215 14.0869 17.6607 14.1364 17.6093C14.1636 17.5808 14.4936 17.4195 14.5204 17.3903C14.6116 17.2901 14.76 17.2577 14.8437 17.1541C14.9045 17.0789 14.9695 17.0079 15.0669 16.9639C15.3801 16.8212 15.5016 16.8021 15.7837 16.6268C15.8623 16.5777 15.9566 16.5441 16.04 16.4997C16.1311 16.4502 16.2207 16.3992 16.3048 16.3434C16.3964 16.2822 16.4817 16.2156 16.5677 16.1501C16.6277 16.1045 16.6908 16.0609 16.7403 16.009C16.8034 15.9428 16.8825 15.8964 16.9729 15.857C17.1501 15.7799 17.198 15.6213 17.3281 15.4895C17.3659 15.4509 17.4368 15.2943 17.496 15.2783C17.6171 15.2455 17.5268 15.1473 17.6043 15.0737C17.6576 15.0234 17.7129 14.9731 17.7753 14.9299C17.8765 14.8593 17.9357 14.7728 17.9692 14.6711C18.0456 14.445 18.1913 14.242 18.3194 14.0327C18.4402 13.8363 18.5835 13.6445 18.6595 13.4376C18.7592 13.1644 18.8737 12.897 19.0062 12.6332C19.0502 12.5459 19.0856 12.4547 19.1113 12.3627C19.1592 12.1935 19.241 11.84 19.2991 11.5965V0.217773H0.736084H0.736474Z" fill="#221D20"/>
</svg>
