<svg width="22" height="23" viewBox="0 0 22 23" fill="none" xmlns="http://www.w3.org/2000/svg">
<path d="M0.301322 15.3146C0.306725 15.443 0.326542 15.4791 0.483712 15.4358C0.635928 15.3939 0.766974 15.42 0.892169 15.4957C1.01421 15.5696 1.1205 15.6679 1.28397 15.6877C1.28892 15.6886 1.29387 15.6922 1.29793 15.6954C1.34341 15.7346 1.40691 15.7445 1.46275 15.7674C1.54967 15.8012 1.63838 15.8404 1.70729 15.8941C1.74962 15.9261 1.79105 15.9549 1.83879 15.9801C1.9856 16.0576 2.14907 16.1004 2.3184 16.1333C2.3855 16.1459 2.45576 16.1559 2.51655 16.1797C2.70434 16.2536 2.90069 16.3036 3.1101 16.3176C3.30375 16.3311 3.46227 16.4014 3.60052 16.5042C3.66177 16.5492 3.72616 16.5826 3.80678 16.6001C3.89009 16.6182 3.9743 16.6393 4.04861 16.6727C4.26342 16.7709 4.48049 16.8651 4.71061 16.9381C4.74799 16.9498 4.77996 16.971 4.81599 16.9858C4.88535 17.0156 4.92813 17.0593 4.9556 17.1224C4.98667 17.1931 5.03576 17.2584 5.07224 17.3274C5.088 17.3571 5.09476 17.3905 5.10106 17.4225C5.10827 17.4549 5.09836 17.4946 5.11592 17.5198C5.21004 17.655 5.26363 17.81 5.38882 17.9303C5.39378 17.9348 5.38838 17.9474 5.38793 17.9564C5.36631 17.9726 5.32668 17.9456 5.30822 17.9907C5.31903 18.0037 5.33433 18.0226 5.3492 18.0411C5.37441 18.0722 5.40369 18.101 5.4244 18.1335C5.48475 18.2304 5.50637 18.3421 5.58473 18.4327C5.60004 18.4503 5.60184 18.4782 5.60409 18.5021C5.61085 18.5719 5.64012 18.6318 5.69776 18.6823C5.71668 18.699 5.72974 18.7215 5.74235 18.7427C5.81891 18.8756 5.90267 19.0063 5.96797 19.1433C6.02741 19.2672 6.08325 19.3947 6.11027 19.5263C6.14855 19.7115 6.22196 19.8773 6.35931 20.0215C6.403 20.067 6.43002 20.1165 6.43407 20.1778C6.43677 20.2206 6.45749 20.2616 6.4719 20.3026C6.48136 20.3297 6.50658 20.3571 6.50252 20.3824C6.49082 20.4662 6.52954 20.532 6.57277 20.6C6.59889 20.641 6.60475 20.6906 6.61871 20.7365C6.62637 20.7595 6.62772 20.7843 6.63987 20.805C6.68041 20.8708 6.68536 20.9411 6.67636 21.0159C6.6705 21.0587 6.67726 21.1033 6.68761 21.1448C6.71193 21.2385 6.7412 21.3313 6.76957 21.4241C6.77813 21.4521 6.78219 21.4832 6.8011 21.5052C6.87135 21.5904 6.90152 21.6841 6.88711 21.7905C6.87901 21.8517 6.91233 21.8937 6.98034 21.9117C7.00646 21.9193 7.03798 21.9202 7.06635 21.9166C7.16137 21.9058 7.25054 21.9166 7.34106 21.9374C7.50859 21.9757 7.68242 21.9941 7.8585 21.9599C7.99946 21.932 8.13726 21.932 8.27686 21.9392C8.33451 21.9423 8.3935 21.9486 8.45115 21.9428C8.67001 21.9207 8.87942 21.9558 9.08478 21.9986C9.18431 22.0194 9.27887 22.0279 9.3748 21.9964C9.42839 21.9788 9.47522 21.982 9.52791 21.9851C9.68373 21.9941 9.83955 22.014 9.99807 21.9914C10.1075 21.9752 10.2169 21.9549 10.3259 21.9351C10.4471 21.9121 10.5668 21.891 10.6862 21.927C10.7119 21.9351 10.7443 21.9315 10.7727 21.9288C10.8713 21.9202 10.9564 21.9432 11.033 21.9892C11.0564 22.0027 11.0816 22.014 11.1055 22.0266C11.1514 22.0518 11.2036 22.0622 11.2554 22.0432C11.3248 22.0176 11.3914 22.0225 11.4612 22.0284C11.5067 22.0324 11.5563 22.0306 11.6004 22.0194C11.7031 21.9937 11.8012 22.005 11.8918 22.0338C12.026 22.0748 12.1606 22.0784 12.3029 22.0577C12.4371 22.0378 12.57 22.0383 12.6992 22.0748C12.747 22.0883 12.8019 22.0897 12.8537 22.0892C12.9465 22.0879 13.0406 22.0761 13.1338 22.077C13.3491 22.0793 13.5652 22.0685 13.7769 22.1054C13.8895 22.1244 14.0061 22.1356 14.1218 22.1343C14.2151 22.1334 14.3074 22.1293 14.3988 22.1455C14.483 22.1604 14.5681 22.1721 14.6537 22.1811C14.7109 22.187 14.7708 22.1928 14.8271 22.1843C14.9815 22.1618 15.1293 22.1663 15.2698 22.2275C15.3796 22.1676 15.4949 22.1739 15.6111 22.1856C15.6737 22.1915 15.7395 22.1964 15.8021 22.1883C15.9408 22.1699 16.0781 22.1365 16.2182 22.1563C16.2344 22.1586 16.2533 22.1527 16.27 22.1487C16.5091 22.0897 16.7523 22.0586 16.9982 22.0446C17.0684 22.041 17.1396 22.0396 17.2076 22.0257C17.4228 21.9833 17.6386 21.9914 17.8538 21.9914C17.9137 21.9914 17.9691 21.9878 18.025 21.968C18.1772 21.9144 18.3397 21.9085 18.4902 21.9279C18.6581 21.9495 18.8257 21.9432 18.9936 21.9482C19.0634 21.9504 19.1346 21.9513 19.203 21.9419C19.4687 21.9063 19.7381 21.8977 19.9993 21.8283C20.0155 21.8238 20.0339 21.8243 20.051 21.8238C20.2028 21.8171 20.3541 21.813 20.5054 21.804C20.6865 21.7941 20.8648 21.7553 21.0467 21.7558C21.0949 21.7558 21.1346 21.7269 21.1467 21.6823C21.1593 21.6346 21.1715 21.5864 21.1814 21.5386C21.1972 21.4561 21.2066 21.3732 21.2264 21.2917C21.2386 21.2453 21.2544 21.1921 21.2895 21.1569C21.3485 21.0979 21.3976 21.0402 21.4151 20.9645C21.421 20.9384 21.4575 20.9172 21.4732 20.8911C21.5385 20.7857 21.6074 20.6816 21.6601 20.573C21.679 20.5333 21.6867 20.4896 21.7146 20.4504C21.7349 20.4211 21.7457 20.3873 21.761 20.354C21.729 20.3355 21.7024 20.3197 21.6736 20.3026C21.6813 20.2589 21.6808 20.2139 21.697 20.1729C21.7313 20.0881 21.7155 20.007 21.6912 19.9291C21.6606 19.8318 21.6155 19.7385 21.5777 19.6434C21.5453 19.5619 21.4944 19.4821 21.4858 19.3978C21.471 19.2514 21.4219 19.1167 21.3705 18.9806C21.3435 18.9076 21.3318 18.8306 21.3084 18.7558C21.2697 18.6318 21.2188 18.5115 21.2053 18.3791C21.1958 18.2822 21.1147 18.1979 21.1062 18.0956C21.0598 18.0623 21.0558 18.0159 21.0445 17.9677C21.0328 17.9172 20.9959 17.8726 20.9688 17.8253C20.94 17.7744 20.9022 17.7257 20.8815 17.6716C20.8499 17.5901 20.8256 17.5054 20.8054 17.4207C20.7806 17.317 20.7563 17.2143 20.7108 17.1152C20.6568 16.9953 20.6054 16.8732 20.6171 16.7376C20.6221 16.6808 20.6054 16.6222 20.5932 16.5654C20.5676 16.4474 20.5307 16.3316 20.5122 16.2126C20.4784 15.9972 20.4437 15.7846 20.3712 15.5759C20.3028 15.3777 20.2145 15.1889 20.1064 15.006C20.0803 14.9627 20.065 14.9194 20.0537 14.8712C20.0272 14.7541 19.997 14.636 19.9533 14.5234C19.9092 14.4098 19.8452 14.303 19.7943 14.1913C19.7736 14.1471 19.761 14.0994 19.7502 14.053C19.729 13.9637 19.7209 13.8709 19.6899 13.7849C19.6489 13.6709 19.5921 13.5609 19.5417 13.4496C19.5057 13.369 19.4629 13.2901 19.4332 13.2081C19.4021 13.1247 19.3634 13.0468 19.3057 12.9747C19.2242 12.872 19.1936 12.7553 19.226 12.6291C19.2418 12.5665 19.2242 12.5165 19.1864 12.4655C19.1179 12.3727 19.0553 12.2763 19.0369 12.1636C19.0355 12.1542 19.0315 12.1447 19.0265 12.1366C18.9702 12.0406 18.95 11.9365 18.9518 11.8284C18.9531 11.7581 18.9247 11.6977 18.8838 11.6387C18.8504 11.5896 18.8266 11.5351 18.8018 11.4819C18.7797 11.4341 18.7932 11.3882 18.8315 11.3463C18.7779 11.2309 18.7297 11.1165 18.7023 10.9917C18.6671 10.8317 18.6018 10.6762 18.5334 10.5244C18.483 10.4126 18.4469 10.2969 18.3996 10.1842C18.3632 10.099 18.3217 10.0152 18.2839 9.93007C18.2618 9.88051 18.2353 9.83229 18.2249 9.78047C18.2024 9.66963 18.1529 9.5696 18.0889 9.47272C18.0533 9.41955 18.0232 9.36143 18.0047 9.30195C17.9425 9.09738 17.8912 8.89011 17.8277 8.686C17.7885 8.56028 17.7214 8.44538 17.6183 8.34715C17.5625 8.29443 17.5143 8.23495 17.4697 8.17412C17.4075 8.08896 17.3558 7.99885 17.2936 7.91369C17.2279 7.82312 17.1806 7.72714 17.1711 7.6181C17.168 7.58475 17.1675 7.54781 17.1495 7.51942C17.0536 7.36847 17.0225 7.19094 16.8914 7.05396C16.8577 7.01791 16.8442 6.96745 16.823 6.92329C16.737 6.74125 16.6532 6.55831 16.5649 6.37762C16.546 6.33842 16.5186 6.29922 16.4834 6.27038C16.4123 6.21136 16.3722 6.14107 16.3465 6.05996C16.3317 6.0149 16.3033 5.9721 16.2731 5.93289C16.1925 5.82836 16.1164 5.72337 16.0916 5.59585C16.0853 5.56386 16.0601 5.53547 16.0453 5.50438C16.0043 5.42012 15.9556 5.33812 15.9264 5.2516C15.9061 5.18987 15.8791 5.13535 15.8385 5.08263C15.7413 4.95737 15.662 4.8267 15.6742 4.66719C15.6764 4.64331 15.667 4.61988 15.6647 4.59555C15.6575 4.51715 15.6363 4.44415 15.5796 4.38062C15.5571 4.35493 15.5481 4.32024 15.5359 4.28869C15.5148 4.23462 15.5003 4.17785 15.4756 4.12513C15.4278 4.02285 15.3742 3.92237 15.3229 3.82189C15.2941 3.76466 15.2743 3.70608 15.268 3.64165C15.263 3.59028 15.236 3.54072 15.2144 3.49161C15.1851 3.42492 15.15 3.35913 15.1198 3.29244C15.091 3.22981 15.0694 3.16493 15.0378 3.1041C14.9811 2.99416 14.9397 2.88106 14.9194 2.7603C14.8987 2.63774 14.8789 2.51247 14.787 2.40794C14.7582 2.37595 14.7424 2.32864 14.7415 2.28673C14.7393 2.21193 14.7217 2.14479 14.6749 2.08171C14.6555 2.05558 14.6555 2.01728 14.6528 1.98394C14.6393 1.82939 14.6267 1.67528 14.5533 1.53245C14.5353 1.49775 14.5209 1.46035 14.5118 1.42295C14.5042 1.39186 14.5078 1.35806 14.506 1.32607C14.5317 1.31706 14.5474 1.31121 14.5636 1.30625C14.5839 1.29994 14.6118 1.30309 14.6123 1.27245C14.5326 1.26885 14.4519 1.26975 14.3731 1.26074C14.2822 1.25038 14.1935 1.22875 14.1029 1.21523C13.9097 1.18549 13.7264 1.13548 13.558 1.05392C13.4535 1.00346 13.3446 0.96335 13.2194 0.954787C13.127 0.94848 13.0356 0.938569 12.9433 0.928655C12.8613 0.920095 12.7879 0.897567 12.7253 0.851606C12.697 0.830428 12.6596 0.809701 12.6222 0.806096C12.5425 0.798886 12.461 0.804292 12.3804 0.80294C12.3407 0.80294 12.3011 0.798432 12.2615 0.79618C12.1579 0.78852 12.0588 0.767793 11.9521 0.767793C11.8161 0.768243 11.6851 0.790774 11.5513 0.803842C11.4329 0.816007 11.341 0.857913 11.2527 0.922347C11.1789 0.975966 11.1226 1.0386 11.0721 1.10664C10.9433 1.28056 10.7727 1.41529 10.5452 1.4964C10.4786 1.52028 10.4196 1.55182 10.3764 1.60273C10.2656 1.7325 10.1548 1.86182 10.0427 1.99114C9.96925 2.0763 9.89494 2.16012 9.81883 2.24303C9.75354 2.31422 9.68959 2.38451 9.64726 2.46876C9.59682 2.5688 9.54638 2.67333 9.46937 2.7594C9.36625 2.87655 9.32031 3.00497 9.27527 3.13789C9.2379 3.24829 9.18025 3.35192 9.08883 3.43979C8.97084 3.55424 8.87672 3.6795 8.80197 3.81467C8.77945 3.85523 8.76323 3.89804 8.73892 3.93724C8.70559 3.98996 8.67407 4.04358 8.62994 4.08954C8.55473 4.16974 8.49528 4.25355 8.47727 4.35403C8.46826 4.40405 8.44439 4.45136 8.39621 4.4829C8.33136 4.52616 8.29353 4.57707 8.28767 4.64511C8.28632 4.66223 8.26516 4.67891 8.253 4.69603L8.25435 4.69332C8.24129 4.70954 8.22868 4.72712 8.21382 4.74244C8.13051 4.82625 8.03683 4.9033 7.98414 5.00558C7.96883 5.03442 7.9328 5.06146 7.89903 5.07948C7.80401 5.12859 7.74276 5.19844 7.68872 5.27729C7.66035 5.31874 7.61937 5.36109 7.57253 5.38678C7.38654 5.48771 7.24919 5.61838 7.17623 5.79231C7.15597 5.84007 7.12039 5.86576 7.06005 5.86891C7.03168 5.87026 7.0042 5.87477 7.00826 5.87432C6.92224 5.93695 6.85874 5.9811 6.7984 6.02842C6.76012 6.05816 6.71689 6.08925 6.69122 6.12665C6.65068 6.18522 6.59304 6.22488 6.52639 6.25867C6.47145 6.28706 6.41696 6.31635 6.35931 6.34654C6.36247 6.3596 6.36742 6.37312 6.36832 6.38709C6.37192 6.43891 6.34535 6.46053 6.28726 6.45242C6.26069 6.44882 6.23547 6.43981 6.2098 6.43305C6.14766 6.56237 6.11658 6.59571 6.01525 6.64122C5.95581 6.66826 5.92474 6.6615 5.88736 6.61103C5.8761 6.59571 5.86979 6.57859 5.86169 6.56192C5.80899 6.63311 5.75721 6.70475 5.70361 6.77505C5.69101 6.79127 5.67389 6.80749 5.65498 6.8183C5.44512 6.93545 5.28165 7.09496 5.10241 7.2396C5.04657 7.28511 4.99568 7.33693 4.93219 7.37117C4.77457 7.45498 4.66513 7.5834 4.51877 7.67667C4.4958 7.69154 4.47238 7.71362 4.46608 7.73525C4.44176 7.81725 4.37015 7.86727 4.30305 7.9245C4.19092 8.02002 4.08374 8.11735 4.04591 8.25658C4.02745 8.32462 3.97521 8.39581 3.91621 8.44808C3.8293 8.52558 3.78696 8.60939 3.764 8.70898C3.74283 8.80585 3.6996 8.89822 3.59197 8.95995C3.54874 8.98473 3.53657 9.02078 3.53207 9.06178C3.51225 9.22129 3.4483 9.36548 3.30014 9.47993C3.30239 9.56509 3.26322 9.63899 3.1691 9.67368C3.06057 9.71333 3.01598 9.77777 2.99932 9.86608C2.99572 9.88501 2.98446 9.90303 2.9777 9.91926C2.86286 9.94494 2.85205 9.85572 2.80612 9.81021C2.73136 9.87149 2.71335 9.90574 2.64355 10.1044C2.67777 10.1324 2.71155 10.1612 2.74172 10.186C2.7084 10.2788 2.56519 10.2901 2.55978 10.3883C2.55978 10.3915 2.53727 10.3924 2.52781 10.3973C2.50439 10.4099 2.47332 10.4217 2.46206 10.4401C2.42198 10.5059 2.39001 10.5744 2.35263 10.6415C2.34047 10.6627 2.32471 10.688 2.30219 10.6997C2.23959 10.7308 2.21618 10.7808 2.19636 10.8321C2.17925 10.8745 2.16934 10.9182 2.15222 10.9601C2.12926 11.016 2.11215 11.0759 2.07567 11.125C1.99776 11.2309 1.92075 11.34 1.82077 11.4305C1.69738 11.5423 1.61677 11.6752 1.50869 11.7937C1.43258 11.8766 1.35917 11.96 1.27361 12.037C1.11689 12.1781 0.993947 12.3367 0.955668 12.5277C0.937655 12.6192 0.929097 12.7116 0.909734 12.8035C0.871453 12.986 0.868304 13.1725 0.771931 13.3473C0.762023 13.3649 0.762475 13.3856 0.755269 13.4046C0.701678 13.5348 0.702124 13.6722 0.648984 13.8038C0.610705 13.8993 0.572881 14.0016 0.591794 14.1057C0.597649 14.1377 0.600796 14.1706 0.604399 14.1994C0.552611 14.2309 0.506228 14.2539 0.466599 14.2837C0.421565 14.3166 0.426518 14.3503 0.473355 14.3931C0.480561 14.3999 0.487315 14.4071 0.494971 14.4143C0.490918 14.4238 0.488665 14.4333 0.48326 14.4414C0.411656 14.5527 0.364817 14.6667 0.389586 14.7937C0.396342 14.8302 0.38959 14.8739 0.371127 14.9077C0.299973 15.0388 0.295016 15.1731 0.30087 15.3097M0.567925 15.0762C0.571528 15.0789 0.575131 15.0817 0.579184 15.0839C0.576481 15.0916 0.573777 15.0988 0.571526 15.1055C0.567473 15.1033 0.561169 15.1006 0.561169 15.0983C0.56207 15.0907 0.565674 15.0835 0.568375 15.0762" fill="#221D20"/>
</svg>
