<svg width="21" height="21" viewBox="0 0 21 21" fill="none" xmlns="http://www.w3.org/2000/svg">
<path d="M0.763006 0.666705C0.839254 0.680462 0.917166 0.685467 0.997995 0.647947C1.04883 0.624185 1.10383 0.662122 1.13675 0.706312C1.17383 0.755504 1.17633 0.830545 1.26091 0.843051L1.25007 0.850553C1.25674 0.912668 1.24175 0.98104 1.30841 1.02481C1.35133 1.05316 1.41882 1.05232 1.43799 1.12528C1.43799 1.20198 1.43424 1.29161 1.43924 1.38041C1.44465 1.47921 1.50132 1.54633 1.60423 1.5801C1.66965 1.60178 1.73382 1.62804 1.79923 1.64889C1.86215 1.66848 1.93923 1.63138 1.99256 1.68932C1.99256 1.78715 2.04242 1.89832 2.14214 2.02283C2.10214 2.14206 2.0913 2.27171 1.99214 2.37176C1.97923 2.38427 1.98422 2.42596 1.99839 2.44347C2.0638 2.52809 2.14214 2.59355 2.26714 2.55978C2.26839 2.58438 2.27046 2.60981 2.27088 2.63524C2.27172 2.69735 2.24672 2.7628 2.30672 2.81616C2.38213 2.88287 2.46421 2.92122 2.57296 2.89829C2.59754 2.89245 2.62629 2.90288 2.65754 2.90663C2.74254 3.06546 2.82462 3.22763 2.91711 3.3848C2.9492 3.43899 3.00045 3.49902 3.05837 3.52236C3.19711 3.57781 3.27628 3.68037 3.34836 3.78959C3.38461 3.84462 3.40836 3.9059 3.46544 3.94676C3.57419 4.02513 3.70626 4.086 3.72168 4.23524C3.72251 4.24608 3.73627 4.26192 3.74752 4.264C3.92293 4.30277 3.98626 4.42034 4.01667 4.56917C4.02334 4.60002 4.07 4.62878 4.10417 4.64921C4.17958 4.69506 4.21833 4.76176 4.24417 4.83639C4.26542 4.89683 4.28208 4.95812 4.30375 5.02815C4.38624 5.05108 4.46791 5.06776 4.54457 5.0961C4.62249 5.12487 4.69373 5.16823 4.77082 5.19824C4.82165 5.21825 4.87832 5.22576 4.93207 5.23952C5.05331 5.27036 5.17747 5.29537 5.29497 5.3354C5.3583 5.35707 5.42664 5.3946 5.46622 5.44296C5.56789 5.56927 5.71288 5.64889 5.84121 5.75312C5.83788 5.78938 5.82745 5.82816 5.83287 5.86484C5.86162 6.04952 5.94662 6.20794 6.12079 6.31049C6.17995 6.34551 6.24703 6.36927 6.2837 6.42638C6.34411 6.51935 6.41244 6.58105 6.54536 6.58981C6.65702 6.59648 6.74868 6.67402 6.8241 6.75197C6.92493 6.85578 7.03409 6.95541 7.09367 7.07589C7.09367 7.12466 7.09575 7.16302 7.09367 7.20137C7.08367 7.36146 7.13034 7.49945 7.23617 7.63327C7.33742 7.76125 7.44825 7.86797 7.59616 7.9501C7.66366 7.98762 7.76116 8.00096 7.78574 8.08892C7.78449 8.10184 7.7874 8.11602 7.78157 8.12644C7.73157 8.21107 7.71408 8.29403 7.78532 8.37782C7.94074 8.55959 8.05532 8.76886 8.23281 8.93645C8.28864 8.98939 8.30781 9.07569 8.3653 9.1253C8.60405 9.3279 8.7803 9.50758 8.95321 9.75313C9.02321 9.85234 9.09945 9.93781 9.2407 9.96115C9.3757 9.98366 9.4657 10.1133 9.62069 10.1066C9.64569 10.1058 9.68777 10.1554 9.69652 10.1875C9.71693 10.2659 9.75068 10.3297 9.82151 10.381C9.96484 10.4848 10.109 10.584 10.2669 10.6707C10.4948 10.7949 10.7152 10.9304 10.8857 11.1255C10.9623 11.2135 11.0694 11.2789 11.1627 11.3544C11.1973 11.4353 11.1319 11.5032 11.1286 11.5787C11.1265 11.6291 11.1269 11.68 11.1352 11.73C11.1431 11.7804 11.2056 11.8288 11.2515 11.8246C11.4331 11.8079 11.6148 11.7892 11.7965 11.7725C11.8569 11.7667 11.9331 11.8192 11.9527 11.8822C11.964 11.9184 11.9735 11.9584 11.9685 11.9951C11.9615 12.0456 11.9348 12.0935 11.9265 12.1444C11.9177 12.1982 11.9381 12.2473 11.9935 12.2744C12.0923 12.3224 12.1915 12.3707 12.2944 12.4112C12.4102 12.4566 12.5302 12.4933 12.661 12.5379C12.6644 12.6109 12.6489 12.6917 12.6752 12.7584C12.7094 12.8439 12.7431 12.9231 12.7298 13.0177C12.7256 13.0498 12.7489 13.0949 12.7752 13.1199C12.9223 13.2608 13.0535 13.4092 13.1168 13.6001C13.1939 13.6622 13.2385 13.7219 13.1923 13.829C13.146 13.9361 13.196 14.0266 13.3223 14.0758C13.3698 14.0946 13.3689 14.1258 13.3348 14.17C13.2185 14.3213 13.216 14.3263 13.356 14.4402C13.3423 14.6398 13.4706 14.7778 13.6077 14.9067C13.7027 14.9963 13.8589 15.0221 13.9152 15.1576C13.926 15.1847 13.9818 15.2014 14.0202 15.2143C14.0877 15.2364 14.1452 15.2652 14.1877 15.3227C14.251 15.4073 14.3372 15.4757 14.3651 15.5824C14.3822 15.6483 14.4343 15.6958 14.5077 15.7129C14.7318 15.765 14.8589 15.9113 14.9551 16.091C15.016 16.2052 15.0706 16.3257 15.2251 16.3687C15.2543 16.377 15.2764 16.4266 15.2885 16.4612C15.3735 16.688 15.4972 16.8814 15.7547 16.9798C15.8776 17.0269 15.9609 17.1141 15.9889 17.237C16.0218 17.3829 16.1826 17.4551 16.2284 17.5951C16.2434 17.6406 16.2939 17.6773 16.3297 17.7165C16.448 17.8474 16.5868 17.9562 16.7609 18.0179C16.848 18.0495 16.8955 18.1075 16.933 18.1779C16.9563 18.223 16.9759 18.2701 16.9947 18.3097C17.1292 18.3497 17.2513 18.3801 17.3684 18.4218C17.5013 18.4698 17.638 18.4914 17.7788 18.5006C17.8192 18.504 17.868 18.5148 17.8955 18.5386C18.0846 18.7007 18.3125 18.797 18.5484 18.8825C18.5734 18.8921 18.5925 18.9142 18.6167 18.9275C18.6838 18.9659 18.6971 19.0188 18.6975 19.0901C18.6984 19.2081 18.755 19.251 18.8767 19.2552C19.0025 19.2602 19.1288 19.2639 19.2542 19.2744C19.2959 19.2777 19.3304 19.3069 19.3413 19.3486C19.3471 19.3736 19.3454 19.3998 19.3525 19.4244C19.3692 19.4845 19.4146 19.5232 19.4638 19.5191C19.5617 19.5111 19.6592 19.4999 19.7575 19.4936C19.7992 19.4916 19.8454 19.4903 19.8825 19.5049C20.0246 19.5578 20.1825 19.5958 20.3 19.68C20.4546 19.7913 20.5716 19.9447 20.5496 20.1448C20.5416 20.2161 20.5329 20.2849 20.5404 20.3545H0.760921V0.666288L0.763006 0.666705Z" fill="#221D20"/>
</svg>
