<svg width="23" height="23" viewBox="0 0 23 23" fill="none" xmlns="http://www.w3.org/2000/svg">
<path d="M22.6541 19.5843C22.6421 19.3234 22.5889 19.0745 22.565 18.8169C22.5535 18.6922 22.4998 18.6045 22.436 18.5206C22.4427 18.4587 22.4432 18.3925 22.4576 18.3345C22.4883 18.2132 22.4921 18.1048 22.4274 18.0041C22.414 17.9834 22.4121 17.9441 22.4073 17.9125C22.3953 17.8256 22.3685 17.7504 22.3363 17.6765C22.3133 17.6233 22.264 17.582 22.2726 17.5149C22.2836 17.4247 22.2467 17.3461 22.2601 17.2597C22.2649 17.2281 22.2683 17.195 22.2673 17.1624C22.2635 17.0564 22.1921 16.9773 22.2208 16.855C22.2462 16.7495 22.229 16.6416 22.2108 16.5346C22.204 16.4953 22.205 16.4435 22.217 16.408C22.2477 16.3121 22.2223 16.2267 22.1839 16.1687C22.1475 16.1121 22.1173 16.067 22.1149 15.9821C22.1135 15.9179 22.102 15.8536 22.0909 15.7908C22.0631 15.6311 22.0444 15.4723 22.0952 15.3141C22.1015 15.2954 22.1015 15.2719 22.1048 15.2508C22.1178 15.1635 22.1197 15.0791 22.0842 15.0004C22.0574 14.9424 22.0526 14.8767 22.0761 14.8158C22.1192 14.7045 22.0991 14.5842 22.1 14.4681C22.1 14.4283 22.0833 14.3856 22.0694 14.3492C22.0444 14.2835 22.0128 14.224 21.9898 14.1573C21.9701 14.0993 21.9572 14.0336 22.007 13.9871C22.0133 13.9818 22.0171 13.9717 22.021 13.9626C22.0406 13.9132 22.0234 13.8389 21.9908 13.8307C21.8983 13.8068 21.8057 13.7943 21.7128 13.8164C21.7056 13.8178 21.6993 13.8226 21.6917 13.8245C21.6049 13.8547 21.521 13.8447 21.4386 13.7933C21.3849 13.7598 21.3303 13.7439 21.2713 13.7698C21.2277 13.7895 21.1874 13.7636 21.1476 13.7348C21.0187 13.6413 20.8878 13.5521 20.7589 13.4581C20.7129 13.4245 20.6664 13.4058 20.6156 13.3977C20.502 13.3795 20.3889 13.3718 20.2748 13.3924C20.2336 13.4001 20.1948 13.4543 20.1511 13.4154C20.1209 13.3881 20.0922 13.3584 20.062 13.3286C20.0275 13.3574 19.9978 13.3862 19.9656 13.4102C19.9474 13.4236 19.9201 13.4456 19.9067 13.4351C19.8564 13.3948 19.8314 13.4768 19.7974 13.4787C19.7437 13.4816 19.7106 13.5574 19.657 13.5454C19.6028 13.5339 19.5803 13.5689 19.5831 13.6562C19.5851 13.7099 19.5371 13.7559 19.5065 13.7286C19.4163 13.6475 19.3483 13.7113 19.2721 13.7799C19.2256 13.8216 19.2376 13.8931 19.2112 13.9415C19.2002 13.9621 19.1613 13.9645 19.1551 13.9387C19.1455 13.8993 19.1417 13.8571 19.1335 13.8168C19.1326 13.8111 19.123 13.8058 19.1172 13.8058C19.1125 13.8058 19.1048 13.8096 19.1014 13.8149C19.0966 13.8231 19.0938 13.8346 19.0933 13.8451C19.0928 13.8816 19.0808 13.9108 19.0592 13.9156C18.9658 13.9367 18.8728 13.9396 18.7927 13.8427C18.7707 13.8643 18.7539 13.8835 18.7357 13.8988C18.6897 13.9358 18.6427 13.9554 18.5924 13.9156C18.5406 13.8744 18.486 13.8634 18.427 13.8634C18.3484 13.8638 18.2693 13.8499 18.1912 13.8331C18.1188 13.8188 18.0675 13.8581 18.0263 13.953C17.9084 13.908 17.7895 13.8811 17.6664 13.9012C17.6175 13.9089 17.5657 13.896 17.5178 13.8768C17.4684 13.8571 17.4195 13.8466 17.3697 13.8418C17.2853 13.8341 17.2848 13.8327 17.2369 13.9818C17.2235 14.0221 17.2067 14.0624 17.1775 14.0705C17.106 14.0902 17.0495 14.1722 16.9747 14.1717C16.9311 14.2206 16.8846 14.2408 16.8362 14.1933C16.7106 14.0705 16.5735 14.1151 16.4384 14.1262C16.2869 14.2067 16.1412 14.1674 15.9974 14.0811C15.9782 14.0701 15.9528 14.0552 15.9365 14.0653C15.8704 14.1051 15.809 14.0538 15.7453 14.0538C15.6801 14.0533 15.6408 13.9928 15.6019 13.9271C15.5713 13.8758 15.5535 13.8192 15.5785 13.7507C15.5967 13.6998 15.6005 13.6475 15.5856 13.5943C15.5473 13.4643 15.5641 13.3142 15.5185 13.1867C15.509 13.1608 15.5109 13.1224 15.5133 13.0912C15.519 13.0039 15.5233 12.9186 15.4989 12.8347C15.4936 12.8164 15.4927 12.7896 15.4974 12.7718C15.5492 12.5766 15.52 12.3613 15.5674 12.1652C15.577 12.1263 15.5727 12.0798 15.5727 12.0366C15.5727 11.8625 15.5689 11.6894 15.5703 11.5158C15.5708 11.4295 15.5799 11.3432 15.5847 11.2568C15.5885 11.1921 15.601 11.125 15.5943 11.0636C15.5775 10.9144 15.6039 10.784 15.6532 10.6598C15.6686 10.6224 15.6815 10.584 15.6992 10.5355C15.7218 10.526 15.7486 10.5159 15.775 10.502C15.7879 10.4948 15.8076 10.4833 15.8095 10.4689C15.8215 10.3922 15.8478 10.3274 15.879 10.2684C15.9097 10.2114 15.9461 10.1605 15.9849 10.0996C15.9643 10.0809 15.949 10.0636 15.9317 10.0507C15.9053 10.031 15.8814 10.009 15.8718 9.96389C15.8694 9.95382 15.8684 9.94231 15.8651 9.9332C15.8172 9.80227 15.7558 9.67758 15.7764 9.51357C15.7558 9.37593 15.7376 9.23589 15.6791 9.12031C15.6503 9.06324 15.6403 9.00521 15.659 8.93951C15.6786 8.86949 15.6666 8.80906 15.6283 8.76686C15.5765 8.70883 15.5593 8.63497 15.5626 8.54049C15.5674 8.41101 15.5521 8.28056 15.5813 8.15252C15.5924 8.10408 15.5947 8.03934 15.5823 7.9933C15.5574 7.90026 15.6039 7.82352 15.5981 7.74199C15.5928 7.66958 15.5641 7.60244 15.5507 7.5305C15.5459 7.50221 15.5497 7.46144 15.5602 7.43603C15.5967 7.34299 15.6374 7.2533 15.6781 7.16458C15.6853 7.14828 15.6997 7.13341 15.7127 7.12861C15.7788 7.10224 15.8128 7.0092 15.8708 6.95884C15.8795 6.90848 15.8881 6.85621 15.8972 6.80394C15.9049 6.7579 15.8962 6.71713 15.8756 6.68452C15.8512 6.6452 15.8248 6.60827 15.797 6.57374C15.775 6.5464 15.7505 6.52434 15.7294 6.50132C15.7079 6.41643 15.6719 6.33874 15.6815 6.25002C15.6921 6.15267 15.6657 6.08121 15.6312 6.01023C15.6144 5.97522 15.601 5.93446 15.5818 5.90376C15.5339 5.83087 15.5219 5.73687 15.4974 5.64623C15.4433 5.44145 15.4112 5.24002 15.4232 5.0151C15.4313 4.86691 15.3982 4.71585 15.3934 4.56334C15.391 4.48085 15.358 4.40028 15.3359 4.32019C15.3311 4.30245 15.3182 4.2847 15.3062 4.27559C15.1428 4.15953 15.0761 3.92981 15.0081 3.70153C15.0014 3.55094 14.9438 3.44112 14.8815 3.33514C14.8719 3.31883 14.8638 3.30061 14.8571 3.28094C14.8432 3.24114 14.837 3.19989 14.8556 3.15913C14.8791 3.11021 14.8777 3.05698 14.8667 3.00375C14.8197 2.77882 14.7142 2.64214 14.5705 2.56924C14.5168 2.54191 14.4607 2.52033 14.4046 2.50546C14.3533 2.49155 14.3135 2.45367 14.2704 2.41195C14.199 2.34289 14.1204 2.28917 14.0418 2.23977C13.9914 2.20812 13.955 2.16017 13.9363 2.08775C13.9114 1.99039 13.8706 1.92229 13.8093 1.87769C13.7896 1.86426 13.7719 1.84508 13.7547 1.82541C13.6804 1.73957 13.6435 1.59714 13.5601 1.5252C13.4766 1.45279 11.6667 1.1353 11.614 1.01732C11.5833 0.948263 11.5369 0.919488 11.4856 0.915652C11.3777 0.908458 11.2723 0.883039 11.1668 0.848509C11.1232 0.834602 11.0858 0.81686 11.0532 0.767463C11.0106 0.70272 10.9435 0.730538 10.8941 0.679702C10.873 0.657641 10.8394 0.658116 10.8116 0.656677C10.6631 0.649484 9.67231 0.455738 9.52229 0.445667C9.49401 0.443748 9.46525 0.433198 9.43841 0.421688C9.35596 0.38524 9.27592 0.341598 9.18724 0.338241C9.1465 0.336803 9.10624 0.299391 9.0655 0.279728C9.01085 0.252872 8.95526 0.236091 8.8963 0.254315C8.79708 0.285487 8.16918 0.271575 8.069 0.267739C7.97985 0.263902 7.90028 0.242802 7.82934 0.149764C7.79915 0.110438 7.75265 0.0917324 7.71143 0.0816612C7.63426 0.0629576 6.90474 0.217385 6.83236 0.155998C6.81654 0.14305 6.79018 0.152161 6.77005 0.160793C6.65981 0.206833 6.54285 0.202037 6.43549 0.268219C6.42925 0.272055 6.42159 0.268219 6.4144 0.268219C6.36838 0.271096 6.33483 0.303711 6.30463 0.355985C6.27156 0.412576 6.23273 0.461488 6.19583 0.512803C6.17857 0.536782 6.15844 0.528634 6.12393 0.48787C6.11291 0.475401 6.10045 0.464365 6.08942 0.452376C5.90632 0.489783 5.87325 0.489785 5.68392 0.460531C5.64845 0.455255 5.61538 0.450938 5.58279 0.423602C5.55115 0.396266 5.51376 0.392911 5.48069 0.425522C5.46056 0.446144 5.44186 0.439911 5.42173 0.426482C5.38818 0.403463 5.35415 0.392434 5.31772 0.410178C5.29759 0.420249 5.27458 0.436551 5.25541 0.430317C5.09244 0.378043 4.92804 0.410656 4.76411 0.402503C4.74302 0.401544 4.72002 0.394826 4.70228 0.380439C4.63566 0.325767 4.5767 0.375648 4.51583 0.403944C4.38162 0.582827 4.19756 0.592417 4.04657 0.71423C4.03411 0.724302 4.01781 0.730057 4.00487 0.7267C3.86491 0.685456 3.74269 0.825011 3.6056 0.813981C3.50447 0.873449 3.40956 0.950183 3.34437 1.08542C3.30842 1.15976 3.26145 1.20484 3.20969 1.24225C3.18476 1.25999 3.15169 1.28013 3.1282 1.27006C3.06253 1.23985 3.01844 1.2902 2.97146 1.34008C2.91922 1.39523 2.8641 1.44511 2.81089 1.4993C2.79364 1.51753 2.77015 1.53815 2.7644 1.56453C2.74283 1.66284 2.67093 1.69258 2.64169 1.78274C2.6206 1.84748 2.57172 1.89112 2.55015 1.95538C2.5257 2.02828 2.47729 2.06041 2.44949 2.11988C2.40971 2.2086 2.37855 2.30068 2.32151 2.37502C2.2755 2.43592 2.2501 2.53328 2.21559 2.61433C2.13554 2.63735 2.05885 2.65989 1.98695 2.68099C1.91457 2.91406 1.91649 2.91694 1.80673 3.08719C1.73819 3.19414 1.67108 3.303 1.59871 3.40371C1.57091 3.44304 1.55509 3.48381 1.54406 3.53752C1.53927 3.5639 1.51913 3.59986 1.5038 3.60322C1.42806 3.61857 1.39307 3.7423 1.31878 3.75716C1.30057 3.83246 1.25599 3.86459 1.21477 3.90392C1.20662 3.91159 1.20087 3.94372 1.20422 3.96051C1.21333 4.0123 1.22723 4.06122 1.24161 4.12116C1.20662 4.1883 1.17163 4.25545 1.13568 4.32115C1.12178 4.34561 1.10165 4.36191 1.08775 4.38637C1.0518 4.45303 1.04366 4.54895 0.992369 4.59979C0.944437 4.64583 0.895068 4.68899 0.849053 4.73743C0.814063 4.77388 0.784826 4.82279 0.747918 4.85444C0.717242 4.8813 0.714366 4.91871 0.71149 4.96187C0.705259 5.04052 0.661157 5.08464 0.634794 5.14459C0.625208 5.16617 0.590218 5.10431 0.587343 5.16378C0.583987 5.22948 0.640546 5.26113 0.634794 5.33642C0.630481 5.38822 0.641506 5.44241 0.647737 5.49564C0.660678 5.6165 0.655885 5.72872 0.611308 5.83902C0.574401 5.92966 0.553312 6.03517 0.522156 6.13205C0.513528 6.15938 0.499152 6.19439 0.482855 6.20158C0.364943 6.2553 0.311735 6.39965 0.281058 6.55408C0.211557 6.89746 0.113777 7.22213 0.017914 7.54825C-0.0252245 7.69356 0.0116867 7.86621 0.105633 7.93191C0.138706 7.95493 0.171298 7.97316 0.194305 8.0168C0.234568 8.09353 0.274351 8.16978 0.314134 8.24603C0.327076 8.27193 0.335706 8.30742 0.352482 8.32325C0.445469 8.40718 0.495795 8.55968 0.589262 8.6484C0.666432 8.7213 0.716761 8.85222 0.746479 8.98651C0.768528 9.08674 0.801599 9.15532 0.864869 9.20328C0.908487 9.23685 0.946353 9.29104 0.984698 9.33996C1.01777 9.38216 1.03982 9.43587 1.0566 9.49918C1.1074 9.69053 1.14527 9.88668 1.16779 10.0891C1.17738 10.1696 1.20135 10.2305 1.24161 10.2804C1.27996 10.3269 1.3183 10.3739 1.35569 10.4205C1.34754 10.4933 1.34131 10.5567 1.3346 10.6161C1.36048 10.7259 1.44149 10.7662 1.46833 10.8684C1.49421 10.9686 1.51051 11.0746 1.53447 11.1763C1.55173 11.2477 1.57665 11.3139 1.59439 11.3849C1.60158 11.4132 1.60589 11.4573 1.59679 11.4784C1.55509 11.5705 1.60206 11.6712 1.58001 11.7647C1.57378 11.7896 1.58049 11.8314 1.59199 11.8539C1.65526 11.9796 1.6567 12.1373 1.69265 12.2764C1.70032 12.3062 1.69888 12.3431 1.70894 12.3695C1.73722 12.4443 1.77126 12.5148 1.8005 12.5891C1.82973 12.6634 1.81632 12.7608 1.86233 12.8279C1.89492 12.8754 1.90259 12.9411 1.89923 13.0087C1.89588 13.0629 1.88965 13.1167 1.88917 13.1708C1.88821 13.2025 1.8906 13.2375 1.89875 13.2658C1.93135 13.3847 1.95531 13.5133 2.02721 13.5977C2.06316 13.6394 2.07706 13.7003 2.09336 13.7607C2.11157 13.8293 2.12595 13.9065 2.15615 13.9607C2.18203 14.0072 2.22852 14.0264 2.26591 14.059C2.27118 14.0633 2.2731 14.0758 2.27981 14.0945C2.26208 14.1573 2.24243 14.2264 2.21942 14.3055C2.28748 14.4734 2.32343 14.6738 2.40731 14.8369C2.42553 14.9659 2.46818 15.0781 2.51659 15.1856C2.52905 15.2119 2.5396 15.2474 2.55686 15.2594C2.63211 15.3126 2.67717 15.4071 2.72462 15.504C2.74331 15.5433 2.78261 15.5697 2.81617 15.5812C2.87512 15.6023 2.92497 15.6335 2.95565 15.716C3.05918 15.8119 3.14929 15.9399 3.26385 16.0104C3.3113 16.0392 3.34917 16.0867 3.37697 16.1543C3.43113 16.2852 3.51118 16.3783 3.58978 16.4728C3.62957 16.5212 3.66504 16.573 3.68469 16.6459C3.70913 16.7389 3.75419 16.8094 3.8002 16.8775C3.81554 16.9001 3.82849 16.9384 3.84574 16.9442C3.96509 16.983 4.01829 17.1365 4.07964 17.2641C4.13956 17.3911 4.21481 17.4847 4.29773 17.5672C4.33368 17.6031 4.37011 17.6309 4.39408 17.6894C4.41277 17.735 4.43578 17.7767 4.45878 17.8175C4.51854 17.9227 4.59619 17.9991 4.69173 18.0467C4.71857 18.122 4.7483 18.2088 4.77993 18.2918C4.79383 18.3287 4.81013 18.3714 4.83265 18.3911C4.90072 18.4505 4.92852 18.5445 4.94817 18.6505C4.94961 18.6582 4.96015 18.662 4.96591 18.6678L4.96159 18.6774C4.97852 18.6489 4.99578 18.6486 5.01336 18.6764L5.00856 18.6678C5.04451 18.7349 5.0819 18.8006 5.11593 18.8702C5.14086 18.9215 5.15427 18.9896 5.18495 19.0303C5.21515 19.0716 5.26068 19.0874 5.29903 19.1162C5.33066 19.1402 5.36278 19.1651 5.39393 19.192C5.47254 19.262 5.56984 19.2629 5.63934 19.3757C5.70165 19.4778 5.79464 19.5301 5.85695 19.6394C5.89482 19.7066 5.94946 19.7435 6.0041 19.7699C6.09949 19.8164 6.19487 19.8624 6.28546 19.9262C6.36646 19.9214 6.38756 19.9977 6.41392 20.1008C6.44651 20.2322 6.51218 20.3243 6.61092 20.3765C6.72452 20.437 6.82901 20.5377 6.95315 20.5597C6.97232 20.5631 6.98814 20.5938 7.00731 20.6082C7.03847 20.6317 7.07058 20.6595 7.10462 20.6715C7.19473 20.7031 7.28675 20.7261 7.37782 20.7525C7.40658 20.7607 7.43007 20.7343 7.43774 20.6849C7.44397 20.6427 7.44732 20.6 7.45547 20.5593C7.4641 20.5166 7.50005 20.4864 7.52354 20.5099C7.59879 20.5847 7.69513 20.5286 7.76847 20.6058C7.84324 20.5828 7.90747 20.6369 7.97649 20.6604C8.02538 20.6772 8.07475 20.6868 8.12412 20.7007C8.21567 20.7266 8.30722 20.7559 8.37624 20.8585C8.46156 20.9842 8.57707 21.023 8.67725 21.1045C8.69451 21.1184 8.72231 21.1266 8.73909 21.1156C8.78989 21.0839 8.83542 21.0969 8.88479 21.1223C8.94087 21.1511 8.99216 21.1391 9.04249 21.0767C9.07317 21.0388 9.1187 21.0273 9.16376 21.0643C9.20162 21.0959 9.24428 21.106 9.28694 21.0695C9.29892 21.0595 9.3157 21.0527 9.32769 21.0585C9.43601 21.1146 9.55488 21.1089 9.65889 21.1889C9.68717 21.2105 9.71546 21.2096 9.7423 21.1952C9.81659 21.1539 9.86596 21.2062 9.90814 21.2906C9.92587 21.3266 9.95655 21.3697 9.97764 21.3501C10.0467 21.2853 10.1166 21.3918 10.1857 21.3347C10.2187 21.3069 10.2566 21.3477 10.2854 21.3736C10.3237 21.4076 10.3601 21.4254 10.4057 21.4254C10.4694 21.4249 10.5346 21.4647 10.5964 21.4532C10.6856 21.4374 10.7666 21.4695 10.8486 21.504C10.8912 21.5218 10.9296 21.5347 10.9741 21.5184C11 21.5088 11.0312 21.5232 11.0575 21.5381C11.1342 21.5812 11.2095 21.5961 11.2867 21.5443C11.3145 21.5256 11.3418 21.5381 11.3691 21.5573C11.4635 21.6244 11.5608 21.6421 11.661 21.5913C11.6898 21.5769 11.7161 21.5832 11.7444 21.5961C11.799 21.622 11.8546 21.6445 11.9093 21.668C11.938 21.681 11.9639 21.6724 11.9922 21.6561C12.0095 21.6455 12.0339 21.6527 12.0526 21.6613C12.1005 21.6848 12.1504 21.7031 12.1921 21.7424C12.2376 21.7846 12.275 21.7357 12.31 21.7409C12.3757 21.8009 12.4365 21.8565 12.4921 21.9078C12.5132 21.8949 12.5281 21.891 12.5386 21.8781C12.5616 21.8512 12.5822 21.8225 12.6148 21.833C12.6426 21.8426 12.6714 21.8493 12.6982 21.8618C12.7419 21.8819 12.7831 21.8776 12.8224 21.8431C12.9039 21.7702 12.9897 21.7736 13.0673 21.8402C13.1828 21.9385 13.2974 21.9419 13.4172 21.8767C13.4685 21.8484 13.516 21.8488 13.5572 21.9069C13.5955 21.9601 13.6339 22.0076 13.6904 21.9721C13.7671 21.9932 13.8457 21.9874 13.9191 22.045C13.9507 22.0699 13.9833 22.0867 14.0058 22.1304C14.0537 22.2239 14.1151 22.2574 14.1937 22.2541C14.2862 22.2503 14.3792 22.267 14.4717 22.2728C14.5014 22.2747 14.5259 22.2934 14.5503 22.316C14.6074 22.3654 14.6687 22.3903 14.7358 22.374C14.7727 22.3644 14.8077 22.3802 14.837 22.4138C14.8652 22.4464 14.8916 22.4819 14.9189 22.5159C15.0143 22.504 15.0967 22.5917 15.1912 22.5936C15.276 22.5946 15.3604 22.6095 15.4529 22.6191C15.4754 22.5764 15.5018 22.5255 15.5324 22.468C15.5703 22.468 15.6154 22.4819 15.6537 22.4651C15.7716 22.4133 15.8809 22.4507 15.9892 22.5159C16.0022 22.5241 16.0161 22.5322 16.0276 22.5447C16.0659 22.5845 16.0908 22.5562 16.1196 22.5145C16.1551 22.4632 16.1862 22.4632 16.214 22.4968C16.2251 22.5102 16.237 22.5227 16.2457 22.5394C16.2835 22.6095 16.3324 22.6488 16.3899 22.6713C16.4647 22.7011 16.5438 22.7198 16.6042 22.8056C16.6104 22.8138 16.6296 22.8023 16.6421 22.7999C16.7106 22.7879 16.8352 22.7946 16.8717 22.8186C16.8908 22.8315 16.909 22.8766 16.9229 22.8723C16.9977 22.8502 17.0634 22.9193 17.1353 22.9149C17.1636 22.9135 17.1923 22.9073 17.2196 22.8967C17.2302 22.8924 17.2417 22.8694 17.2446 22.8526C17.2518 22.8061 17.2695 22.7749 17.2982 22.76C17.3931 22.7106 17.4852 22.6512 17.5882 22.6473C17.6146 22.6464 17.6496 22.632 17.6659 22.6047C17.7248 22.5035 17.8073 22.5097 17.882 22.48C17.9012 22.4723 17.9247 22.4833 17.9453 22.491C17.9784 22.504 18.011 22.5222 18.0445 22.5385C18.0781 22.4694 18.1073 22.4095 18.137 22.3466C18.1711 22.3371 18.2094 22.3361 18.2411 22.315C18.3144 22.2666 18.3911 22.2507 18.4692 22.2397C18.5181 22.2325 18.5651 22.2172 18.602 22.15C18.6355 22.0886 18.6926 22.1093 18.7405 22.103C18.7458 22.1121 18.7511 22.1189 18.7544 22.1284C18.7611 22.1467 18.7626 22.174 18.7721 22.1826C18.7841 22.1937 18.7894 22.1735 18.7875 22.1438C18.7812 22.0627 18.7846 21.9898 18.8565 21.9798C18.8771 21.9769 18.8968 21.9582 18.9164 21.9443C18.9452 21.9237 18.9725 21.9347 18.9974 21.9577C19.0314 21.9889 19.065 21.997 19.0981 21.9639C19.1182 21.9438 19.1388 21.9433 19.159 21.9524C19.2505 21.9932 19.3282 21.9443 19.4 21.8661C19.4168 21.8479 19.4336 21.8225 19.4413 21.7947C19.4628 21.715 19.4796 21.6326 19.4978 21.5553C19.6277 21.4302 19.772 21.4134 19.911 21.3673C19.9292 21.3611 19.9508 21.387 19.9714 21.3932C19.9915 21.4 20.0184 21.4139 20.0327 21.4009C20.1123 21.3299 20.1986 21.3491 20.2834 21.3467C20.3117 21.3467 20.3409 21.3448 20.3697 21.3429C20.4124 21.34 20.4311 21.3151 20.4411 21.2455C20.444 21.2244 20.4383 21.2 20.444 21.1818C20.4531 21.1539 20.4694 21.1089 20.4804 21.1103C20.5447 21.1175 20.5964 21.0307 20.663 21.0623C20.7383 21.0978 20.8145 21.1266 20.8931 21.0743C20.9051 21.0666 20.9219 21.0695 20.9358 21.0758C21.0201 21.1146 21.1045 21.0777 21.1893 21.071C21.2272 21.0681 21.2612 21.047 21.2814 20.9995C21.3053 20.9429 21.335 20.905 21.3744 20.8719C21.4012 20.8499 21.4137 20.7871 21.4352 20.7348C21.4707 20.7223 21.5129 20.6902 21.5507 20.6983C21.6025 20.7094 21.6456 20.6504 21.6955 20.6763C21.7386 20.6983 21.7597 20.6571 21.7784 20.6067C21.7942 20.565 21.8244 20.5525 21.8527 20.5559C21.8982 20.5621 21.9404 20.5453 21.9749 20.5075C22.0526 20.4221 22.1484 20.412 22.2323 20.3549C22.2491 20.3434 22.2731 20.3482 22.2932 20.3526C22.3224 20.3578 22.3478 20.3549 22.3747 20.3319C22.4624 20.2571 22.5549 20.2015 22.657 20.1837C22.714 20.1737 22.7668 20.1358 22.8161 20.0888C22.8324 20.073 22.8363 20.0197 22.8185 20.0063C22.703 19.9185 22.6608 19.7603 22.6527 19.5814" fill="#221D20"/>
</svg>
