<svg width="19" height="25" viewBox="0 0 19 25" fill="none" xmlns="http://www.w3.org/2000/svg">
<path d="M18.6203 24.2975H0.00439453V13.2007C0.00439453 13.2007 0.104344 13.2275 0.129331 13.2007C0.179307 13.1471 0.329234 13.2275 0.37921 13.1739C0.37921 13.1739 0.479163 13.2007 0.479163 13.1739C0.504151 13.1739 0.878966 13.2275 0.878966 13.2007C0.903954 13.1739 1.05388 13.2007 1.07887 13.1739H1.32875L1.35373 13.1471C1.40371 13.1739 1.50366 13.1739 1.55364 13.1739C1.65359 13.1739 1.75354 13.1739 1.85349 13.1471H2.0284C2.0284 13.1471 2.12835 13.1203 2.15334 13.1471C2.20332 13.1739 2.32826 13.0935 2.40322 13.1203C2.42821 13.1471 2.50317 13.1471 2.55314 13.1739C2.60312 13.2275 2.65309 13.2275 2.70307 13.2007C2.80302 13.1471 2.80302 13.2275 2.87798 13.2007C2.87798 13.2007 2.88631 13.1918 2.90297 13.1739C2.90297 13.1739 2.95295 13.1739 3.02791 13.1739C3.0529 13.1739 3.12786 13.2007 3.15285 13.2007C3.20283 13.1739 3.30278 13.1471 3.35275 13.0935C3.37774 13.0935 3.47769 13.1203 3.50268 13.1203C3.52766 13.1471 3.55265 13.1203 3.60263 13.1203H3.62762C3.62762 13.1203 4.40224 13.1471 4.52717 13.0935H4.62713C4.62713 13.0935 4.77705 13.0667 4.82703 13.0935C4.82703 13.1203 4.85202 13.0935 4.85202 13.0935C4.90199 13.1471 4.877 13.0667 4.95196 13.0935C4.97695 13.1203 5.0769 13.0935 5.12688 13.0935C5.17685 13.0935 6.30131 13.1203 6.32629 13.1203C6.37627 13.1471 6.47622 13.1471 6.5262 13.1471H6.55118C6.55118 13.1471 6.67612 13.1203 6.7261 13.1203H6.97598C6.97598 13.1203 7.1259 13.0935 7.17588 13.1203H7.27583C7.27583 13.1203 7.40076 13.0935 7.42575 13.1203C7.47573 13.1203 7.60067 13.0935 7.67563 13.0935C7.70062 13.1203 7.77558 13.0935 7.80057 13.0935C7.85055 13.0667 7.90052 13.0667 7.92551 13.1203C7.95049 13.1203 7.97548 13.0935 8.02546 13.0935C7.92551 13.0399 7.85054 13.0399 7.75059 12.9863C7.65064 12.9863 7.60067 12.9863 7.55069 12.9595C7.50072 12.9595 7.42575 12.9059 7.37578 12.8523C7.3258 12.8255 7.27582 12.8255 7.22585 12.8255V12.7182C7.22585 12.7182 7.07592 12.611 7.02595 12.5574C6.97597 12.5306 6.90101 12.5038 6.85103 12.4502C6.82605 12.4234 6.7261 12.343 6.70111 12.3162C6.67612 12.2894 6.65113 12.2626 6.65113 12.2626C6.62614 12.2358 6.60116 12.1554 6.60116 12.1286C6.57617 12.1018 6.55118 12.075 6.55118 12.0214C6.45123 11.8605 6.37627 11.7533 6.22634 11.6997C6.05143 11.5925 5.87651 11.4853 5.72659 11.2708C5.67661 11.1636 5.57666 11.11 5.47671 11.0564C5.3018 10.9224 5.15187 10.842 5.00194 10.7348C4.877 10.6007 4.85202 10.5203 4.82703 10.3595V10.2255C4.82703 10.2255 4.80204 10.0379 4.72708 9.93065C4.62712 9.87705 4.60214 9.76983 4.60214 9.66262C4.57715 9.60901 4.50219 9.5286 4.45221 9.50179C4.35226 9.36778 4.2773 9.23375 4.17735 9.15334C4.12737 9.04613 4.05241 8.96572 4.00243 8.88531C3.97745 8.8317 3.95246 8.75129 3.95246 8.69768V8.26882C3.95246 8.26882 3.92747 8.1616 3.92747 8.108C3.95246 8.00078 3.95246 7.89357 3.95246 7.75955C3.97744 7.70594 3.95246 7.62553 3.92747 7.57192C3.90248 7.51831 3.87749 7.4111 3.87749 7.35749C3.87749 7.33069 3.90248 7.30388 3.92747 7.25028C3.90248 7.22347 3.90248 7.14306 3.87749 7.11626C3.82752 6.95543 3.75255 6.82142 3.70258 6.6874C3.67759 6.66059 3.67759 6.58018 3.67759 6.55338C3.67759 6.49977 3.67759 6.39256 3.70258 6.36575C3.72757 6.23173 3.75256 6.15132 3.80253 6.0173C3.82752 5.91009 3.8525 5.82968 3.90248 5.69566C3.92747 5.58844 3.95246 5.50803 4.00243 5.37401C4.02742 5.34721 4.02742 5.32041 4.05241 5.2668C4.10239 5.15958 4.17735 5.05237 4.25231 4.94515C4.30229 4.89154 4.45221 4.5699 4.45221 4.48949C4.45221 4.40908 4.45221 4.32867 4.4772 4.30186C4.50219 4.24825 4.50218 4.16784 4.50218 4.11424C4.4772 4.06063 4.50219 4.00702 4.52717 3.98022C4.57715 3.873 4.65212 3.79259 4.70209 3.68538C4.70209 3.65857 4.70209 3.57816 4.72708 3.55136C4.82703 3.49775 4.85202 3.41734 4.90199 3.33693C4.95197 3.20291 5.0769 3.06889 5.17686 2.98848C5.22683 2.88126 5.32678 2.82765 5.37676 2.72044C5.40174 2.69363 5.42674 2.66683 5.5017 2.61322C5.60165 2.4792 5.7016 2.39879 5.82654 2.29158C5.85152 2.23797 5.87651 2.18436 5.92649 2.13076C6.02644 1.99674 6.12639 1.83591 6.25133 1.7555C6.37627 1.7019 6.45123 1.64829 6.60116 1.62148C6.65113 1.62148 6.72609 1.59468 6.80106 1.59468C6.82604 1.59468 6.82605 1.56788 6.85103 1.56788C6.97597 1.59468 7.05094 1.54107 7.17588 1.54107C7.20086 1.54107 7.22585 1.54107 7.22585 1.51427C7.27582 1.48746 7.37577 1.48746 7.42575 1.48746C7.55069 1.48746 7.62565 1.43386 7.72561 1.35345C7.87553 1.29984 8.02546 1.24623 8.17539 1.24623C8.32531 1.21943 8.52521 1.13902 8.67514 1.0586C8.70013 1.0318 8.77509 1.005 8.80008 0.951389H8.82507C8.82507 0.951389 8.87504 0.978194 8.92502 0.978194C8.97499 0.978194 8.97499 0.978193 9.02497 0.951389C9.12492 0.924586 9.22487 0.924586 9.32482 0.951389C9.37479 0.951389 9.42477 0.951389 9.47475 0.924585C9.5747 0.897781 9.64966 0.817372 9.74961 0.790568C9.7746 0.763764 9.84956 0.73696 9.89954 0.763764C9.99949 0.763764 10.0745 0.736959 10.1744 0.710155C10.2744 0.710155 10.3743 0.683351 10.4992 0.710155C10.5242 0.710155 10.5492 0.736959 10.5492 0.736959C10.6742 0.736959 10.7491 0.73696 10.8491 0.763764C10.899 0.790568 10.974 0.790566 11.049 0.81737C11.1239 0.844174 11.2489 0.870977 11.3488 0.924585C11.3738 0.924585 11.4488 0.951389 11.4738 0.951389C11.4988 0.978193 11.5237 0.978194 11.5737 1.005C11.7236 1.13902 11.8736 1.19262 12.0485 1.21943C12.0985 1.24623 12.1734 1.24623 12.2234 1.27303C12.3983 1.32664 12.5732 1.40706 12.7731 1.46066C12.9231 1.48747 13.048 1.59468 13.1729 1.64829C13.3229 1.7019 13.4478 1.78231 13.5977 1.83591C13.6477 1.83591 13.7227 1.86272 13.7726 1.94313C13.7976 1.96993 13.8226 1.99674 13.8726 2.05034C13.8976 2.07715 13.9725 2.15756 13.9725 2.21117C13.9975 2.26478 14.0225 2.31838 14.0225 2.31838C14.1225 2.4256 14.1724 2.50601 14.1974 2.61322C14.2224 2.64003 14.2974 2.72044 14.3474 2.74724C14.3723 2.77405 14.3973 2.80085 14.4473 2.85446C14.4723 2.88126 14.5473 2.96167 14.5722 2.98848C14.5972 3.04208 14.6222 3.09569 14.6722 3.1493C14.6972 3.1761 14.7222 3.25651 14.7721 3.28332C14.8971 3.44414 15.022 3.60496 15.097 3.76579C15.122 3.81939 15.1969 3.873 15.2219 3.89981C15.3219 3.92661 15.3719 4.00702 15.4218 4.06063C15.4218 4.06063 15.4468 4.06063 15.4718 4.08743C15.4968 4.11424 15.5218 4.11424 15.5718 4.14104C15.5967 4.19465 15.6717 4.27506 15.7217 4.30186C15.7717 4.40908 15.8466 4.46268 15.8966 4.5699C15.8966 4.62351 15.9216 4.62351 15.9466 4.67711C15.9466 4.70392 15.9716 4.73072 15.9965 4.78433C15.9965 4.81113 16.0215 4.81113 16.0215 4.83794C16.0215 4.97196 16.1215 5.05237 16.1215 5.15958C16.1465 5.2668 16.1465 5.34721 16.1215 5.45442V5.56164C16.1215 5.56164 16.1465 5.61525 16.1465 5.66885C16.1715 5.80287 16.2464 5.93689 16.1715 6.04411C16.1465 6.09772 16.1465 6.17812 16.1465 6.20493C16.1715 6.31214 16.1715 6.36575 16.1465 6.41936C16.1465 6.44616 16.1215 6.55338 16.1215 6.58018V6.63379C16.1715 6.79461 16.1715 6.92863 16.1465 7.06265C16.1215 7.19667 16.1215 7.33069 16.1465 7.4379C16.1715 7.46471 16.1715 7.54512 16.2464 7.59873C16.2964 7.75955 16.2964 7.94718 16.2714 8.1348V8.26882C16.2714 8.26882 16.2964 8.48325 16.2714 8.61727C16.2714 8.67088 16.2464 8.75129 16.2714 8.8049C16.2714 8.8585 16.2714 8.93891 16.2464 8.99252C16.1964 9.04613 16.1465 9.12654 16.1465 9.18015C16.1215 9.18015 16.1215 9.20695 16.0965 9.20695C16.0465 9.31417 15.9716 9.36777 15.9216 9.47499C15.8716 9.5822 15.7966 9.63581 15.7467 9.68942C15.6467 9.79664 15.5967 9.87705 15.5967 9.98426C15.5967 10.0379 15.5718 10.1183 15.5468 10.1719C15.5218 10.2255 15.4968 10.2791 15.4968 10.3327C15.4718 10.3595 15.4718 10.4399 15.4468 10.4667C15.3469 10.5203 15.3219 10.6544 15.2719 10.7616C15.2219 10.8152 15.1719 10.8956 15.122 10.9224C15.122 10.9492 15.097 10.976 15.072 10.976C15.047 11.11 14.9471 11.1368 14.8971 11.244C14.7971 11.3781 14.7472 11.5121 14.6972 11.6193C14.6722 11.7801 14.5722 11.8873 14.4473 11.9677C14.3474 11.9945 14.2724 12.075 14.1974 12.075C14.1724 12.1018 14.1475 12.1286 14.1475 12.1822C14.0975 12.2358 13.9975 12.3162 13.8976 12.3698C13.7976 12.4234 13.6977 12.5038 13.5977 12.5574C13.5977 12.5574 13.5727 12.5842 13.5477 12.5842C13.3728 12.6378 13.2229 12.7719 13.048 12.8523H12.998C12.998 12.8523 12.8731 12.9059 12.8481 12.9595C12.6732 13.0667 12.4983 13.0667 12.2734 13.1203C12.1734 13.1471 12.0985 13.1471 11.9985 13.1739C11.8986 13.2007 11.8236 13.2275 11.6987 13.3079C11.5737 13.3883 11.4238 13.4151 11.2739 13.3347C11.2489 13.3079 11.2239 13.3079 11.1739 13.3079C10.924 13.3347 10.7241 13.3347 10.4743 13.3079H10.3743C10.3743 13.3079 10.2744 13.3347 10.2244 13.3347C10.2244 13.978 10.1994 13.9512 10.1994 14.1388V14.2729C10.1994 14.2729 10.2494 14.4069 10.2494 14.4873C10.2744 14.5945 10.2494 14.6749 10.2744 14.7821C10.2744 14.7821 10.2744 14.8894 10.2494 14.9162C10.2494 14.943 10.2494 14.9698 10.2744 15.0234C10.2993 15.1574 10.3243 15.2914 10.2993 15.3986C10.2744 15.4254 10.2993 15.5058 10.2993 15.5326C10.3243 15.5863 10.3243 15.6667 10.2993 15.7203C10.2744 15.7203 10.3243 15.7203 10.3243 15.7471C10.2993 15.7471 10.3243 15.7739 10.3243 15.7739C10.2993 15.8007 10.3493 15.8275 10.3243 15.8811C10.3243 15.9079 10.3493 15.9883 10.3243 16.0151C10.3243 16.0419 10.3493 16.1223 10.3493 16.1491C10.3243 16.2027 10.3243 16.2563 10.3243 16.31V16.5244C10.3243 16.5244 10.3243 16.6316 10.3493 16.6852C10.3493 16.6852 10.3243 16.846 10.3493 16.9532C10.3493 17.0068 10.3993 17.0605 10.3493 17.1141C10.3493 17.2213 10.2494 17.2749 10.3243 17.3285C10.3243 17.3285 10.3327 17.3464 10.3493 17.3821C10.3493 17.3821 10.3993 17.4089 10.3993 17.4357V17.4893C10.3993 17.4893 10.3993 17.6501 10.3493 17.7037V17.7574C10.3493 17.7574 10.3993 17.811 10.3993 17.8914C10.3493 17.9182 10.3493 17.9986 10.3993 18.0522C10.3993 18.079 10.4243 18.079 10.3993 18.1058C10.3993 18.1594 10.3993 18.2398 10.4243 18.2934C10.4243 18.2934 10.4493 18.347 10.4243 18.4275C10.4743 18.4811 10.4243 18.5883 10.4243 18.6151C10.4493 18.6419 10.4243 18.7223 10.4493 18.7491C10.4493 18.7759 10.4743 18.8027 10.4493 18.8563C10.4493 18.8563 10.4243 18.8563 10.4493 18.8831C10.4493 18.9903 10.4992 19.0171 10.4992 19.0707C10.4992 19.178 10.4493 19.2316 10.4493 19.3388C10.4493 19.3388 10.4493 19.4996 10.4743 19.5532C10.4743 19.5532 10.4992 19.6872 10.4992 19.714C10.5242 19.7408 10.4992 19.7408 10.4992 19.7676V19.9285C10.4992 19.9285 10.5242 20.0357 10.5242 20.0893C10.4992 20.1429 10.4992 20.1965 10.5242 20.2501C10.5242 20.2769 10.5242 20.3573 10.4992 20.3841C10.4992 20.4109 10.4992 20.4377 10.5242 20.4913C10.5242 20.4913 10.5326 20.5271 10.5492 20.5986C10.5492 20.5986 10.4992 20.7862 10.5242 20.8666C10.5242 20.8666 10.5326 20.8755 10.5492 20.8934V21.0006C10.5492 21.0006 10.5242 21.1346 10.5242 21.1882C10.5242 21.2418 10.5242 21.9387 10.5492 21.9924V22.1532C10.5492 22.1532 10.5242 22.18 10.5242 22.2068C10.5492 22.314 10.5492 22.3944 10.5492 22.5016C10.5492 22.5284 10.5742 22.6088 10.5742 22.6356C10.5992 22.6356 10.5992 22.6624 10.5992 22.6893C10.5992 22.6893 10.6991 22.6356 10.7241 22.582C10.7241 22.582 10.7741 22.5552 10.7741 22.5284C10.7991 22.5016 10.7991 22.4748 10.8241 22.4212H10.8491L10.8741 22.3944H10.899C10.899 22.3944 10.949 22.448 10.999 22.4212C11.024 22.3944 11.049 22.3676 11.049 22.2872C11.049 22.2604 11.074 22.2336 11.099 22.18C11.1989 22.1264 11.2489 22.046 11.3488 21.9655C11.3488 21.9387 11.3738 21.9119 11.3988 21.8315C11.4238 21.8047 11.4488 21.8047 11.4988 21.7243C11.5237 21.6975 11.5487 21.6707 11.5487 21.6171C11.5737 21.5903 11.5737 21.5635 11.5987 21.5635C11.6237 21.5367 11.6237 21.4563 11.6237 21.4295C11.6237 21.4027 11.6487 21.4027 11.6487 21.4027C11.6737 21.2955 11.6987 21.2418 11.7736 21.1882C11.7986 21.1614 11.8236 21.1346 11.8236 21.081H11.8486C11.8486 21.081 11.8986 20.947 11.9485 20.9202C11.9735 20.8934 11.9735 20.8666 11.9485 20.7862C11.9485 20.7862 11.9485 20.7594 11.9735 20.7594C11.9985 20.7326 11.9985 20.7058 12.0235 20.6254C12.0235 20.5718 12.0485 20.5181 12.0485 20.4645C12.0735 20.4377 12.0735 20.4109 12.0985 20.4109C12.1484 20.3841 12.2234 20.3573 12.2484 20.2769C12.2484 20.2769 12.2567 20.259 12.2734 20.2233C12.2734 20.2233 12.2984 20.1697 12.2984 20.1161C12.2984 20.0625 12.3233 20.0893 12.3233 20.0625C12.3733 20.0089 12.4233 19.9285 12.4733 19.8749C12.4983 19.848 12.5732 19.8481 12.5732 19.7676C12.5982 19.7408 12.6232 19.714 12.6732 19.6604C12.6982 19.6068 12.7232 19.5532 12.7731 19.5264C12.7981 19.4996 12.8231 19.4728 12.8731 19.4728H12.8981C12.8981 19.4728 12.948 19.446 12.998 19.446C13.023 19.3388 13.098 19.2584 13.123 19.178C13.1479 19.178 13.1479 19.1512 13.1479 19.1512C13.1979 19.178 13.2479 19.1512 13.2479 19.1244C13.2479 19.0975 13.2729 19.0975 13.2729 19.0707C13.2729 19.0439 13.2979 19.0439 13.3229 19.0171C13.3728 19.0171 13.4228 19.0171 13.4478 18.9903C13.4978 18.9903 13.5477 18.9367 13.5727 18.8563C13.5977 18.8295 13.6227 18.8295 13.6227 18.8027C13.6477 18.7759 13.6727 18.7491 13.7227 18.6955C13.7726 18.6687 13.8226 18.5883 13.8476 18.5347C13.8476 18.4811 13.8726 18.4275 13.9476 18.4275C13.9725 18.4275 13.9725 18.4006 13.9975 18.3738C14.0225 18.347 14.0475 18.3202 14.0975 18.2666C14.1475 18.2666 14.2224 18.2398 14.2224 18.1594C14.2474 18.1058 14.3224 18.0254 14.3474 17.9718C14.3723 17.9182 14.4473 17.811 14.4973 17.7574C14.4973 17.7306 14.4973 17.7037 14.5223 17.7037V17.6501C14.5223 17.6501 14.5722 17.5161 14.6722 17.4893C14.6972 17.4893 14.7222 17.4625 14.7222 17.4357C14.7721 17.4089 14.8221 17.3285 14.8221 17.2749C14.8471 17.2213 14.8721 17.1677 14.9221 17.1409C14.9471 17.0873 15.022 17.0068 15.047 16.9532C15.047 16.846 15.097 16.7924 15.147 16.7388C15.1719 16.7388 15.1719 16.712 15.1969 16.712C15.2219 16.6852 15.2969 16.6584 15.3219 16.578C15.3469 16.5512 15.3719 16.4708 15.4218 16.444C15.4468 16.444 15.4718 16.4172 15.4718 16.3904C15.4968 16.3636 15.4968 16.3368 15.5718 16.2831C15.5967 16.2563 15.6217 16.2295 15.6217 16.1759C15.6467 16.1491 15.6717 16.0687 15.7217 16.0419C15.7467 16.0151 15.7717 15.9347 15.7717 15.8811C15.7966 15.8543 15.7966 15.8275 15.8216 15.8275C15.8466 15.8007 15.8716 15.7739 15.8716 15.6935C15.8966 15.6667 15.9216 15.5863 15.9716 15.5594C15.9965 15.5326 15.9965 15.4522 15.9965 15.3986C16.0215 15.3718 16.0465 15.3718 16.0965 15.345C16.1215 15.345 16.1964 15.3182 16.1964 15.2914C16.2214 15.2378 16.2964 15.1842 16.3214 15.1306C16.3464 15.1038 16.3714 15.077 16.4213 15.0234C16.4463 15.0234 16.4713 14.9966 16.5213 14.9698C16.5463 14.9162 16.5463 14.8357 16.5713 14.7821C16.6212 14.7285 16.6712 14.6749 16.6962 14.6213C16.7212 14.5945 16.7462 14.5677 16.7962 14.4873C16.8211 14.4605 16.8211 14.4337 16.8461 14.3801C16.8711 14.3533 16.8961 14.3533 16.8961 14.3265C16.9461 14.2729 17.021 14.2193 17.071 14.1657C17.071 14.1388 17.096 14.1388 17.096 14.112C17.121 14.0852 17.121 14.0584 17.146 14.0048C17.171 13.9512 17.2459 13.8708 17.2709 13.8172C17.2709 13.7904 17.2959 13.71 17.3709 13.71C17.3959 13.6832 17.4208 13.6832 17.4208 13.6564C17.4208 13.6028 17.4708 13.5492 17.5208 13.5224C17.5458 13.5224 17.5708 13.4956 17.6207 13.4688C17.6457 13.4151 17.6707 13.3347 17.7207 13.3079C17.7207 13.3079 17.8706 13.1203 17.9706 13.0131C18.0206 12.9595 18.0955 12.9059 18.2205 12.8791H18.3204C18.3204 12.8791 18.3704 12.8791 18.3704 12.9059C18.3954 12.9327 18.3954 12.9595 18.3954 12.9595C18.4204 13.0935 18.4453 13.1739 18.4953 13.3079V13.4419C18.4953 13.4419 18.4953 13.6028 18.5203 13.71V13.844C18.5203 13.844 18.5453 13.9512 18.5453 14.0048V14.2997C18.5453 14.2997 18.5703 14.4337 18.5703 14.5141C18.5453 14.5409 18.5453 14.6213 18.5703 14.6749C18.5953 14.7821 18.5953 14.8894 18.5953 14.9966V15.1306C18.5953 15.1306 18.5953 15.2378 18.5703 15.2914V15.4522C18.5703 15.4522 18.5953 15.5594 18.5953 15.6131V15.6667C18.5953 15.6667 18.6203 15.8811 18.5953 15.9883C18.5953 16.0151 18.5953 16.0419 18.6203 16.0419C18.6203 16.0687 18.6452 16.0955 18.6203 16.1759C18.6203 16.2295 18.6452 16.31 18.6452 16.3636V16.578C18.6452 16.578 18.6203 16.7656 18.6452 16.846C18.6702 16.8996 18.6702 16.9532 18.6452 16.9532C18.6203 17.0605 18.6203 17.1677 18.5953 17.2481V17.3553C18.5953 17.3553 18.5703 17.5429 18.5703 17.6233V17.6769C18.5703 17.6769 18.5703 17.8646 18.5953 17.9718V18.0254C18.5953 18.0254 18.5703 18.1326 18.5703 18.1862V18.3738C18.5703 18.3738 18.5453 18.4275 18.5453 18.4811C18.5453 18.5883 18.5453 18.6419 18.5203 18.7491C18.5203 18.7491 18.5203 18.7759 18.5453 18.7759V18.9099C18.5453 18.9099 18.5453 19.0439 18.5703 19.0707C18.5703 19.0975 18.5953 19.1243 18.5703 19.178V19.6604C18.5703 19.6604 18.5703 19.6872 18.5953 19.6872V19.7408C18.5953 19.7408 18.5703 19.7944 18.5953 19.848V19.9821C18.5953 19.9821 18.5953 20.1697 18.6203 20.2769V20.5986C18.6203 20.5986 18.6203 20.7058 18.5953 20.7326V21.0006C18.5953 21.0006 18.6203 21.0274 18.6203 21.0542V21.215C18.6203 21.215 18.6203 21.4027 18.5953 21.4831V21.6707C18.5953 21.6707 18.5953 21.6975 18.6203 21.7243C18.6203 21.7779 18.6203 21.8583 18.5953 21.8851V21.9924C18.5953 21.9924 18.5703 22.0192 18.5953 22.0192C18.6203 22.0728 18.5953 22.1264 18.5953 22.18C18.6203 22.2068 18.6203 22.2872 18.6203 22.3408C18.6203 22.3408 18.5953 22.4748 18.5953 22.5284C18.6203 22.5552 18.6203 22.6356 18.6203 22.6893V22.7429C18.6203 22.7429 18.5953 22.7965 18.5953 22.8501C18.5953 22.9037 18.5703 22.9573 18.5703 22.9841C18.5703 23.0109 18.5703 23.0377 18.5953 23.0377C18.6203 23.0377 18.5953 23.413 18.5953 23.4666C18.5953 23.5202 18.6203 23.5202 18.6203 23.5738C18.6203 23.5738 18.6452 24.0562 18.6203 24.1098C18.6203 24.1098 18.6203 24.1367 18.6452 24.1367C18.6452 24.1635 18.6702 24.1635 18.6702 24.1635V24.2171L18.6203 24.2975Z" fill="#221D20"/>
</svg>
