<svg width="23" height="23" viewBox="0 0 23 23" fill="none" xmlns="http://www.w3.org/2000/svg">
<path d="M22.413 10.402C22.3196 10.351 22.2332 10.2962 22.1689 10.2125C22.1537 10.1923 22.1349 10.1661 22.1128 10.161C22.0121 10.1357 21.9593 10.0575 21.8931 9.99316C21.8301 9.93153 21.7653 9.86944 21.6771 9.84277C21.5828 9.81425 21.5093 9.7563 21.439 9.69514C21.3291 9.59994 21.222 9.50152 21.1177 9.40034C20.9986 9.28445 20.8589 9.19246 20.7325 9.08577C20.6139 8.98597 20.4806 8.90089 20.3868 8.77487C20.3625 8.74268 20.333 8.70773 20.2972 8.69025C20.2043 8.64656 20.1423 8.56792 20.0618 8.51043C20.0117 8.4741 19.9635 8.43271 19.9083 8.40512C19.8541 8.37798 19.8109 8.34625 19.7861 8.29198C19.7778 8.27404 19.7663 8.25427 19.7502 8.24231C19.633 8.15723 19.5475 8.0372 19.4142 7.96729C19.3273 7.92176 19.2515 7.85645 19.1701 7.79989C19.1403 7.77919 19.1127 7.75297 19.0787 7.74056C18.9375 7.68951 18.8203 7.60443 18.7169 7.50233C18.6558 7.44255 18.591 7.39563 18.5041 7.37862C18.4342 7.36574 18.3749 7.32757 18.329 7.27882C18.169 7.1082 17.9709 6.98081 17.7838 6.84238C17.6864 6.77063 17.5945 6.69612 17.514 6.60966C17.4184 6.50757 17.3233 6.40593 17.2065 6.32545C17.167 6.29785 17.133 6.2652 17.1366 6.21323C17.1403 6.15758 17.1109 6.11941 17.0718 6.08124C16.9983 6.00903 16.927 5.93361 16.859 5.85635C16.8181 5.81036 16.7758 5.76253 16.7482 5.70918C16.6958 5.60708 16.6182 5.5243 16.5405 5.44197C16.4159 5.3109 16.2914 5.17937 16.1686 5.04646C16.1305 5.00507 16.1015 4.95678 16.0647 4.91401C15.9871 4.82479 15.9066 4.73833 15.828 4.65003C15.8179 4.63853 15.8133 4.62289 15.8046 4.61048C15.7664 4.55621 15.732 4.49872 15.6883 4.44813C15.5991 4.34511 15.5329 4.23244 15.4934 4.1032C15.4741 4.04066 15.4474 3.97857 15.413 3.92201C15.3753 3.85854 15.3528 3.79277 15.3367 3.72286C15.3151 3.62904 15.2925 3.53339 15.2332 3.45382C15.2011 3.41059 15.1818 3.36782 15.1716 3.31631C15.1648 3.28412 15.1459 3.24917 15.122 3.22525C14.9198 3.03486 14.7957 2.80398 14.7354 2.54046C14.6872 2.32799 14.5975 2.13713 14.4413 1.97662C14.3512 1.88418 14.279 1.77611 14.1751 1.69516C14.1558 1.67999 14.1416 1.65561 14.1315 1.63262C14.0841 1.52178 14.0078 1.43394 13.9122 1.3576C13.8111 1.27666 13.7467 1.16352 13.727 1.04578C13.7012 0.895396 13.6084 0.763402 13.6111 0.606576C13.6116 0.561046 13.5675 0.544032 13.5155 0.556909C13.4337 0.576685 13.3519 0.598761 13.2692 0.615317C13.1915 0.631414 13.1129 0.64337 13.0347 0.654408C12.9649 0.664525 12.9019 0.687523 12.8513 0.737652C12.8334 0.755588 12.8123 0.776743 12.7888 0.782261C12.661 0.814454 12.5333 0.847108 12.4036 0.869183C12.2685 0.892178 12.1311 0.902754 11.9946 0.91839C11.9422 0.924369 11.8911 0.930347 11.8433 0.958401C11.7771 0.996573 11.7128 0.988294 11.6563 0.934025C11.6466 0.924827 11.6273 0.926209 11.597 0.918851C11.5666 1.02739 11.4623 1.03015 11.3713 1.05544C11.3414 1.06418 11.3092 1.06464 11.278 1.06878C11.1828 1.0812 11.095 1.10373 11.0164 1.16536C10.9516 1.21549 10.8744 1.25504 10.7963 1.28309C10.6524 1.33414 10.5044 1.37231 10.3582 1.41784C10.3348 1.42566 10.3049 1.43716 10.2943 1.45556C10.2598 1.51672 10.2019 1.53971 10.1385 1.54937C9.99233 1.57191 9.87282 1.64596 9.75607 1.72552C9.72206 1.74897 9.68943 1.77978 9.65128 1.79266C9.54188 1.82899 9.43892 1.8805 9.31941 1.89154C9.23759 1.89936 9.14934 1.9219 9.0928 1.9849C9.04454 2.03871 8.98846 2.0686 8.92319 2.0916C8.85378 2.11643 8.78714 2.14909 8.71589 2.16656C8.60374 2.19416 8.48974 2.22267 8.37483 2.23049C8.31186 2.23463 8.25119 2.23187 8.19005 2.25394C8.14593 2.27004 8.09675 2.27188 8.05124 2.28521C7.91013 2.32615 7.76166 2.36294 7.66467 2.47699C7.58929 2.56668 7.49323 2.62417 7.39762 2.68625C7.38889 2.69177 7.37831 2.69637 7.37142 2.70281C7.29512 2.77133 7.20089 2.79754 7.10528 2.83066C6.97245 2.87757 6.84099 2.93827 6.72561 3.016C6.6415 3.07302 6.58128 3.16317 6.46867 3.18065C6.45948 3.18249 6.45074 3.19122 6.44293 3.19812C6.37398 3.26067 6.30596 3.32367 6.23563 3.3853C6.15473 3.45566 6.09314 3.55178 5.97041 3.56926C5.94789 3.57248 5.92353 3.59363 5.90882 3.61295C5.87526 3.65526 5.82746 3.6755 5.7815 3.70125C5.69922 3.74724 5.6197 3.79829 5.54018 3.84842C5.38022 3.94913 5.23681 4.06963 5.098 4.19426C5.07042 4.22002 5.04284 4.23704 5.00285 4.24163C4.95597 4.24761 4.91138 4.26601 4.86496 4.27567C4.77395 4.29406 4.69121 4.28302 4.60572 4.23933C4.50873 4.19012 4.40255 4.15563 4.29913 4.11976C4.24259 4.1009 4.20398 4.11884 4.18606 4.17173C4.14745 4.2867 4.08861 4.39616 4.08356 4.52217C4.07942 4.61277 4.06839 4.70429 4.0477 4.79352C4.02242 4.89975 4.02242 5.00599 4.03851 5.11131C4.05322 5.20789 4.05965 5.30079 4.03759 5.39737C4.02564 5.45163 4.02472 5.50636 3.99668 5.55879C3.98427 5.58225 3.98979 5.6172 3.99438 5.64525C4.01875 5.78736 4.0192 5.93085 3.97876 6.06744C3.94888 6.16908 3.93279 6.26382 3.9668 6.365C3.98335 6.41467 3.97784 6.4648 3.95669 6.51355C3.93233 6.56965 3.91532 6.62944 3.88729 6.68325C3.85787 6.73843 3.83351 6.79362 3.82615 6.85479C3.80317 7.04013 3.74801 7.21995 3.74985 7.41081C3.75169 7.55108 3.71446 7.69181 3.69377 7.83162C3.69147 7.8468 3.68182 7.86013 3.67447 7.87347C3.62575 7.96131 3.61287 8.05605 3.61333 8.15355C3.61333 8.18897 3.61334 8.22529 3.60414 8.25887C3.58806 8.31452 3.58438 8.36787 3.60414 8.42305C3.62115 8.46996 3.6115 8.51227 3.56461 8.54309C3.51727 8.57344 3.50164 8.61989 3.49015 8.67186C3.47406 8.74544 3.45246 8.81948 3.4235 8.88985C3.39454 8.95975 3.35042 9.0246 3.32008 9.09451C3.2902 9.16303 3.27963 9.23984 3.20149 9.28261C3.18678 9.29088 3.1877 9.32906 3.18586 9.35389C3.17483 9.519 3.10726 9.65605 2.97396 9.76275C2.94639 9.78574 2.92386 9.81471 2.8995 9.84093C2.77494 9.9789 2.65497 10.1192 2.49455 10.2231C2.41687 10.2742 2.33368 10.3339 2.28771 10.4089C2.22658 10.5096 2.1374 10.5924 2.08822 10.6991C2.04823 10.786 1.98067 10.8339 1.88598 10.8522C1.86024 10.8568 1.8276 10.8582 1.81197 10.8739C1.74211 10.9428 1.64604 10.9833 1.59272 11.0702C1.53481 11.1636 1.43966 11.2183 1.3321 11.2238C1.24247 11.2289 1.19558 11.2648 1.16571 11.337C1.14732 11.3816 1.11285 11.4069 1.06918 11.4317C1.00115 11.4694 0.938643 11.5168 0.880268 11.5674C0.827868 11.6115 0.818675 11.6722 0.843037 11.7353C0.848093 11.7491 0.855906 11.7629 0.865099 11.7753C0.970358 11.9211 0.992422 12.0843 0.975415 12.2559C0.974036 12.271 0.971737 12.2862 0.971277 12.3014C0.9676 12.3584 0.972656 12.415 1.01127 12.461C1.04482 12.5005 1.05309 12.5447 1.04252 12.5898C1.02414 12.6661 1.04252 12.7406 1.04252 12.816C1.04206 12.896 1.07975 12.9627 1.09354 13.0368C1.11561 13.1508 1.1487 13.2635 1.18685 13.3743C1.22822 13.4939 1.27832 13.6107 1.31004 13.7344C1.32613 13.7965 1.36841 13.8522 1.40013 13.9101C1.4176 13.9414 1.44518 13.9685 1.45483 14.0012C1.47367 14.0628 1.5109 14.1097 1.55963 14.1511C1.61249 14.1966 1.64237 14.2505 1.65064 14.3213C1.66167 14.4105 1.67776 14.502 1.74578 14.5742C1.76187 14.5917 1.76371 14.6207 1.77198 14.645C1.79359 14.7076 1.81519 14.7697 1.83588 14.8322C1.87173 14.9398 1.95171 15.0401 1.89425 15.1634C1.88828 15.1753 1.89609 15.1933 1.89885 15.2084C1.92367 15.3478 1.94251 15.4881 1.97561 15.6256C2.00319 15.7424 2.02571 15.8629 2.11304 15.9599C2.15074 16.0018 2.17464 16.0524 2.18475 16.1098C2.19808 16.1843 2.21141 16.2625 2.24496 16.3292C2.27392 16.3872 2.28955 16.441 2.28311 16.503C2.27576 16.5725 2.29598 16.6332 2.35114 16.6815C2.38378 16.7109 2.39986 16.7445 2.39251 16.79C2.38837 16.819 2.39665 16.8498 2.40446 16.8788C2.45916 17.0894 2.51064 17.301 2.5851 17.5065C2.61544 17.5898 2.60303 17.6882 2.68163 17.7563C2.69726 17.7701 2.69358 17.8046 2.69955 17.8289C2.7161 17.903 2.72622 17.9793 2.75333 18.0497C2.7754 18.1086 2.78505 18.1661 2.78505 18.2277C2.78551 18.2888 2.79378 18.3496 2.7947 18.4103C2.797 18.5266 2.83975 18.6283 2.91099 18.7207C2.94593 18.7653 2.9804 18.8099 3.01441 18.8554C3.12979 19.0127 3.24929 19.1677 3.27044 19.3701C3.27504 19.4119 3.30261 19.4561 3.32973 19.4919C3.3757 19.5536 3.42856 19.6106 3.48096 19.6672C3.50486 19.6929 3.53198 19.7214 3.56369 19.7348C3.61058 19.755 3.64091 19.784 3.66344 19.8267C3.69791 19.8911 3.75169 19.9334 3.8211 19.9684C3.92773 20.0222 4.0284 20.0866 4.08953 20.196C4.12722 20.2646 4.19387 20.3152 4.26971 20.3391C4.39796 20.3791 4.46966 20.4623 4.51103 20.5792C4.52987 20.6311 4.5547 20.6822 4.57124 20.7346C4.59285 20.8036 4.67374 20.8027 4.71235 20.8505C4.75234 20.9011 4.80566 20.9301 4.87231 20.9411C4.92195 20.9485 4.95183 20.9829 4.97573 21.0266C5.00791 21.0846 5.04284 21.143 5.08743 21.1913C5.1504 21.2593 5.21659 21.3269 5.29335 21.3789C5.37011 21.4309 5.46204 21.4626 5.54478 21.5072C5.68267 21.5817 5.81873 21.659 5.95478 21.7358C6.02833 21.7767 6.10371 21.8135 6.17266 21.8595C6.28113 21.9313 6.39145 21.9966 6.52337 22.0214C6.53808 22.0242 6.55187 22.0347 6.5652 22.043C6.66034 22.0987 6.75779 22.1479 6.8704 22.1672C6.89982 22.1722 6.93108 22.1879 6.95544 22.2058C7.00646 22.2435 7.05702 22.2532 7.11815 22.2334C7.19307 22.209 7.26432 22.2233 7.33143 22.261C7.36361 22.2794 7.39578 22.2978 7.43026 22.3093C7.46978 22.3217 7.51299 22.3378 7.55206 22.3328C7.72719 22.3111 7.8991 22.3203 8.071 22.358C8.08617 22.3617 8.10226 22.3603 8.11789 22.3622C8.24889 22.3801 8.38586 22.3806 8.50951 22.4206C8.68234 22.4762 8.84459 22.4096 9.0119 22.4128C9.03121 22.4132 9.05327 22.4008 9.06936 22.3889C9.13003 22.3438 9.2022 22.33 9.2739 22.3107C9.48258 22.2546 9.68943 22.1929 9.84111 22.0297C9.85122 22.0182 9.86593 22.0104 9.87972 22.0025C9.99601 21.9331 10.1114 21.8623 10.2295 21.7951C10.3201 21.7445 10.4129 21.6976 10.5058 21.6507C10.5678 21.6194 10.6345 21.6061 10.7048 21.6075C10.7466 21.6084 10.7907 21.607 10.8298 21.5951C11.0031 21.5436 11.1842 21.5413 11.3602 21.5081C11.3906 21.5022 11.4237 21.5086 11.4554 21.51C11.54 21.5132 11.625 21.5224 11.7091 21.5187C11.8144 21.5141 11.927 21.5174 12.0221 21.4815C12.121 21.4438 12.2138 21.4369 12.3145 21.4405C12.3558 21.4419 12.3991 21.4313 12.4395 21.4208C12.5278 21.3982 12.6155 21.3936 12.7066 21.3992C12.7957 21.4042 12.8858 21.3955 12.9754 21.3946C13.0384 21.3941 13.1019 21.3932 13.1644 21.401C13.2342 21.4102 13.3013 21.4134 13.3657 21.3798C13.4103 21.3564 13.4562 21.3578 13.5045 21.3693C13.5454 21.3789 13.5882 21.3927 13.6291 21.3895C13.7068 21.3835 13.7748 21.4093 13.841 21.4382C13.9251 21.412 14.0074 21.3955 14.0924 21.4217C14.1122 21.4281 14.1356 21.4309 14.1549 21.4267C14.2836 21.3964 14.4155 21.4093 14.5447 21.3941C14.5709 21.3913 14.5994 21.3858 14.6228 21.3936C14.7304 21.4263 14.8444 21.3844 14.9515 21.4226C14.9648 21.4272 14.9827 21.4226 14.9984 21.4203C15.1386 21.3964 15.2783 21.3711 15.4185 21.3486C15.4759 21.3394 15.5343 21.3329 15.5918 21.3302C15.692 21.3251 15.7926 21.3256 15.8928 21.3196C15.9287 21.3173 15.9691 21.3109 15.9976 21.2925C16.1948 21.1623 16.4371 21.1513 16.6485 21.0597C16.7708 21.0643 16.8668 21.0027 16.9381 20.9227C17.047 20.8013 17.218 20.7866 17.3352 20.6849C17.3485 20.673 17.3757 20.6748 17.3963 20.6711C17.4276 20.6661 17.4589 20.6619 17.5021 20.6555C17.5149 20.6169 17.5177 20.5833 17.5352 20.5608C17.6142 20.4577 17.702 20.3658 17.8349 20.3216C17.8946 20.3023 17.9557 20.2779 18.0049 20.2416C18.089 20.1795 18.1837 20.1602 18.2839 20.145C18.346 20.1358 18.4117 20.1257 18.4664 20.0986C18.5441 20.0595 18.6222 20.0383 18.7091 20.0415C18.7358 20.0424 18.7643 20.0438 18.7877 20.0346C18.8672 20.0052 18.9435 20.0213 19.0217 20.0392C19.0888 20.0549 19.1559 20.0696 19.2239 20.0783C19.3126 20.0898 19.3811 20.0576 19.4119 19.973C19.451 19.864 19.5346 19.7697 19.5268 19.6446C19.525 19.6212 19.5378 19.5959 19.5484 19.5724C19.6027 19.4515 19.6574 19.3314 19.7116 19.2105C19.7258 19.1778 19.7415 19.1447 19.7479 19.1102C19.7723 18.9759 19.8049 18.8416 19.8109 18.7064C19.8159 18.5947 19.8412 18.4972 19.9083 18.408C19.9267 18.3831 19.9382 18.3542 19.9557 18.3289C19.9906 18.2751 20.0072 18.2199 20.0003 18.1555C19.9727 17.8947 20.0747 17.6661 20.2062 17.4495C20.2471 17.3824 20.2788 17.3189 20.294 17.2426C20.3036 17.1943 20.3257 17.1423 20.3588 17.1069C20.4346 17.026 20.4783 16.9308 20.5289 16.8365C20.5845 16.7339 20.601 16.613 20.6911 16.5256C20.7132 16.504 20.7146 16.4594 20.7187 16.4249C20.7449 16.2198 20.8281 16.0321 20.9421 15.861C21.0257 15.7359 21.1011 15.6108 21.1558 15.4724C21.176 15.4223 21.1875 15.3611 21.2422 15.3303C21.2978 15.2986 21.3144 15.2448 21.3374 15.1942C21.3787 15.1008 21.4215 15.0079 21.4546 14.9123C21.4858 14.8212 21.5199 14.7274 21.5277 14.6331C21.5401 14.4905 21.5686 14.3521 21.6031 14.2141C21.6228 14.1364 21.6495 14.0541 21.6964 13.9897C21.803 13.8421 21.8889 13.6875 21.9372 13.5142C21.9441 13.4898 21.9528 13.4631 21.9698 13.4456C22.053 13.3592 22.0733 13.2332 22.1739 13.1587C22.1891 13.1481 22.1997 13.1237 22.2001 13.1048C22.202 13.0322 22.2447 12.982 22.2953 12.9351C22.3463 12.8878 22.3817 12.8317 22.3886 12.7631C22.3959 12.6854 22.4212 12.615 22.4644 12.5488C22.4773 12.5281 22.4865 12.5015 22.4856 12.4775C22.4824 12.3639 22.5127 12.2568 22.5453 12.1496C22.56 12.1013 22.5642 12.0503 22.5738 12.0006C22.5858 11.9358 22.589 11.8677 22.612 11.807C22.6584 11.6814 22.6887 11.5554 22.6874 11.4221C22.6869 11.3922 22.6943 11.3618 22.6998 11.3319C22.7342 11.1512 22.7352 10.9686 22.7361 10.786C22.7365 10.7249 22.7122 10.6724 22.6763 10.6177C22.6106 10.517 22.5141 10.4581 22.4134 10.4034" fill="#221D20"/>
</svg>
