<svg width="32" height="33" viewBox="0 0 32 33" fill="none" xmlns="http://www.w3.org/2000/svg">
<path d="M3.80952 0.182129C1.70667 0.182129 0 1.8888 0 3.99165V28.3726C0 30.4755 1.70667 32.1821 3.80952 32.1821H28.1905C30.2933 32.1821 32 30.4755 32 28.3726V3.99165C32 1.8888 30.2933 0.182129 28.1905 0.182129H3.80952ZM8.38095 3.22975H10.2095L11.4286 6.27737L12.6476 3.22975H14.4762L12.1905 8.56308V11.6107H10.6667V8.55546C10.2095 7.3288 8.69333 3.99927 8.38095 3.22975ZM16 5.51546C16.6781 5.51546 17.3486 5.72118 17.7752 6.23927C18.1029 6.61261 18.2857 7.21451 18.2857 8.00689V9.11927C18.2857 9.91165 18.1333 10.4602 17.8133 10.8336C17.3867 11.344 16.6781 11.6107 16 11.6107C15.3219 11.6107 14.6286 11.344 14.2019 10.8336C13.8743 10.4602 13.7143 9.91165 13.7143 9.11927V8.01451C13.7143 7.22213 13.8895 6.61261 14.2248 6.23927C14.6514 5.72118 15.2305 5.51546 16 5.51546ZM19.0476 5.51546H20.5714V10.0869C20.6095 10.2926 20.8305 10.384 21.0362 10.384C21.3486 10.384 21.7448 10.0183 22.0952 9.61451V5.51546H23.619V11.6107H22.0952V10.5593C21.4781 11.1612 20.9524 11.6107 20.259 11.5878C19.7562 11.5726 19.4057 11.3897 19.2305 11.024C19.1238 10.8107 19.0476 10.4678 19.0476 9.96499V5.51546ZM16 6.74975C15.8933 6.74975 15.7943 6.7726 15.7029 6.8107C15.6114 6.8488 15.5276 6.90975 15.459 6.97832C15.3905 7.04689 15.3371 7.1307 15.299 7.22213C15.261 7.31356 15.2381 7.42022 15.2381 7.52689V9.66784C15.2381 9.88118 15.3219 10.0793 15.459 10.2164C15.5276 10.285 15.6114 10.3459 15.7029 10.384C15.7943 10.4221 15.8933 10.445 16 10.445C16.1067 10.445 16.2057 10.4221 16.2971 10.384C16.5714 10.2621 16.7619 9.98784 16.7619 9.66784V7.52689C16.7619 7.10022 16.419 6.74975 16 6.74975ZM15.9924 13.8964H16.0076C16.0076 13.8964 21.12 13.8964 24.5333 14.1402C25.0133 14.1936 26.0495 14.2012 26.979 15.1536C27.7105 15.8697 27.9467 17.5155 27.9467 17.5155C27.9467 17.5155 28.1905 18.6812 28.1905 20.6088V22.4145C28.1905 24.3421 27.9467 25.5078 27.9467 25.5078C27.9467 25.5078 27.7105 27.1536 26.979 27.8697C26.0495 28.8221 25.0133 28.8297 24.5333 28.8831C21.12 29.1269 16 29.1345 16 29.1345C16 29.1345 9.66095 29.0736 7.71048 28.8907C7.16952 28.7917 5.95048 28.8221 5.02095 27.8774C4.28952 27.1536 4.05333 25.5078 4.05333 25.5078C4.05333 25.5078 3.80952 24.3421 3.80952 22.4145V20.6088C3.80952 18.6812 4.05333 17.5155 4.05333 17.5155C4.05333 17.5155 4.28952 15.8697 5.02095 15.1536C5.95048 14.2012 6.98667 14.1936 7.46667 14.1402C10.88 13.8964 15.9924 13.8964 15.9924 13.8964ZM6.09524 16.944V18.4526H7.61905V26.0869H9.14286V18.4526H10.6667V16.944H6.09524ZM16 16.944V26.0869H17.5238V25.1345C18.0038 25.7288 18.6286 26.0869 19.139 26.0869C19.7105 26.0869 20.2133 25.7821 20.4038 25.1878C20.4952 24.8678 20.5638 24.5707 20.5638 23.8926V21.7974C20.5638 21.0431 20.4648 20.4793 20.3657 20.1593C20.1752 19.565 19.7105 19.2297 19.1314 19.2297C18.3848 19.2297 18.08 19.6107 17.5162 20.2812V16.944H15.9924H16ZM10.6667 19.2297V24.3269C10.6667 24.8755 10.7429 25.2488 10.8419 25.485C11.0095 25.8736 11.3524 26.0869 11.84 26.0869C12.3962 26.0869 13.1124 25.6983 13.7143 25.0431V26.0869H15.2381V19.2297H13.7143V24.0069C13.379 24.4488 12.8914 24.784 12.5867 24.784C12.3886 24.784 12.2286 24.7002 12.1905 24.4793V19.2297H10.6667ZM23.6419 19.2297C22.8724 19.2297 22.2705 19.4736 21.8362 19.9307C21.5162 20.2659 21.3333 20.8145 21.3333 21.5307V23.8697C21.3333 24.5783 21.539 25.0736 21.859 25.4088C22.2933 25.8659 22.8952 26.0945 23.68 26.0945C24.4648 26.0945 25.0819 25.8583 25.501 25.3707C25.6838 25.1574 25.7981 24.9136 25.8514 24.6469C25.8667 24.525 25.9048 24.1974 25.9048 23.8088H24.381V24.4183C24.381 24.7688 24.0381 25.0583 23.619 25.0583C23.2 25.0583 22.8571 24.7688 22.8571 24.4183V23.0469H25.9048V21.5078C25.9048 20.7993 25.7295 20.2736 25.4171 19.9383C24.9981 19.4812 24.3962 19.2374 23.6419 19.2374V19.2297ZM23.619 20.3345C24.0381 20.3345 24.381 20.624 24.381 20.9745V21.9878H22.8571V20.9745C22.8571 20.624 23.2 20.3345 23.619 20.3345ZM18.4533 20.5631C18.8724 20.5631 19.0476 20.8145 19.0476 21.6145V23.7097C19.0476 24.5021 18.8724 24.7764 18.4533 24.7764C18.2171 24.7764 17.7676 24.6164 17.5238 24.3726V21.0355C17.7676 20.7993 18.2171 20.5555 18.4533 20.5555V20.5631Z" fill="#221D20"/>
</svg>
